<svg xmlns="http://www.w3.org/2000/svg" width="2663.964" height="2663.924" viewBox="0 0 704.84 704.83"><path d="M0 .046C234.35-.044 468.719.028 703.07.01c-.072 231.374.035 462.748-.054 694.124.054 2.896.285 5.812.823 8.674-101.63.538-203.26.09-304.889.233-132.989-.071-265.961.144-398.95-.107V.046m237.249 367.956c-17.657 17.424-25.78 42.468-26.996 66.814-.912 16.744 1.288 34.544 10.93 48.694 8.391 12.666 22.523 20.822 37.371 23.256 20.376 3.524 43.15.285 59.286-13.47 14.168-11.897 21.27-29.875 24.687-47.621-13.989 0-27.979 0-41.95.018-2.166 7.584-4.795 15.67-11.145 20.84-8.301 6.887-22.684 6.923-29.267-2.36-6.638-9.535-7.066-21.789-6.638-33.006.859-13.435 3.507-27.71 12.38-38.336 7.227-8.82 20.84-11.592 30.895-6.224 7.066 4.095 9.124 12.735 9.499 20.338 13.954-.052 27.926 0 41.88-.035-.43-13.541-3.185-27.639-11.628-38.604-8.802-12.04-23.311-18.676-37.837-20.411-22.075-2.863-45.725 4.06-61.467 20.107m334.011-18.319c-10.465 3.364-18.175 11.682-24.437 20.34.966-6.154 2.076-12.29 3.096-18.426-14.008-.018-27.998-.018-42.004 0-12.702 70.143-25.385 140.32-38.069 210.48h43.31c4.634-26.189 9.267-52.377 13.935-78.567 4.92 10.644 13.578 20.304 25.421 22.933 19.804 5.295 41.611-2.021 55.153-17.137 18.623-20.447 25.957-48.89 26.28-75.992-.108-18.872-3.596-39.391-16.924-53.684-11.431-12.29-30.269-15.1-45.76-9.947m-499.847 1.771c10.554 10.662 21.182 21.27 31.718 31.95 1.735 1.396 3.31 3.756 5.886 3.328 32.755.088 65.528.018 98.301.018 6.459-13.65 15.511-26.208 27.675-35.35-54.526.144-109.054.036-163.58.054m293.689.144c-5.545 30.16-11.144 60.302-16.709 90.464-1.968 11.144-4.006 22.61-2.11 33.935 1.807 10.983 7.818 21.77 17.835 27.208 12.183 6.405 27.229 6.244 39.894 1.27 10.823-3.917 18.766-12.719 24.883-22.128-1.287 7.085-2.593 14.186-3.9 21.288 13.83.018 27.676 0 41.522.018 9.338-50.697 18.677-101.377 28.014-152.073-14.436.018-28.872-.018-43.309.018-5.152 27.763-10.322 55.508-15.475 83.272-1.735 8.855-3.99 18.033-9.517 25.349-5.563 7.513-15.635 11.341-24.759 9.23-5.903-1.377-9.552-7.334-9.714-13.13-.482-9.035 1.253-17.978 2.79-26.833 4.635-25.957 9.25-51.932 13.883-77.906-14.436.018-28.89-.018-43.328.018M99.25 405.21c-3.65 11.181-7.174 22.415-10.858 33.577-11.557-.053-23.132.018-34.688-.053 9.41 6.923 18.801 13.882 28.105 20.93-3.561 11.252-7.228 22.468-10.788 33.703 9.445-6.923 18.73-14.08 28.337-20.805 9.338 6.959 18.8 13.792 28.086 20.858-3.542-11.288-7.228-22.504-10.788-33.773 9.32-7.031 18.73-13.99 28.14-20.895-11.574.035-23.13-.018-34.705.035-3.722-11.162-7.156-22.413-10.84-33.577m30.93 4.794c11.592 11.79 23.273 23.489 34.813 35.314 10.357.018 20.698 0 31.055 0-.09-11.843.733-23.704 3.292-35.278-23.06-.054-46.1.018-69.16-.036m35.152 59.052c-11.574 11.843-23.489 23.345-35.063 35.169 30.233.072 60.466-.072 90.7.072-10.805-9.123-17.926-21.789-21.646-35.33-11.325-.036-22.666-.144-33.991.089m-61.11 60.946c-10.93 10.985-21.86 21.97-32.737 32.988 127.944.072 255.889.036 383.833.036 2.183-11.771 4.401-23.525 6.584-35.277-117.032-.053-234.082.018-351.132-.035-2.416-.09-4.991.179-6.547 2.288zm0 0" fill="#fff000"/><path d="M558.881 387.34c8.39-3.542 19.607-2.504 25.6 4.955 5.026 6.404 6.028 14.919 6.153 22.79-.125 13.578-2.45 27.495-9.14 39.463-4.115 7.334-10.985 13.846-19.607 15.062-7.89 1.54-16.978-1.377-21.146-8.569-7.12-11.949-5.366-26.707-2.97-39.748 2.916-13.042 8.248-27.747 21.11-33.953zm0 0" fill="#fff000"/><path d="M237.249 368.002c15.742-16.046 39.392-22.97 61.467-20.107 14.526 1.735 29.035 8.371 37.837 20.411 8.443 10.965 11.198 25.063 11.628 38.605-13.954.034-27.926-.018-41.88.034-.375-7.602-2.433-16.243-9.5-20.338-10.053-5.368-23.667-2.595-30.893 6.224-8.874 10.626-11.522 24.901-12.38 38.336-.43 11.217 0 23.47 6.637 33.005 6.583 9.284 20.966 9.248 29.267 2.36 6.35-5.168 8.98-13.254 11.144-20.84 13.972-.017 27.962-.017 41.95-.017-3.416 17.746-10.518 35.724-24.686 47.62-16.136 13.756-38.91 16.995-59.286 13.471-14.848-2.434-28.98-10.59-37.37-23.256-9.643-14.15-11.843-31.95-10.931-48.694 1.217-24.346 9.339-49.39 26.996-66.814zm0 0M571.26 349.683c15.492-5.152 34.33-2.342 45.76 9.947 13.33 14.293 16.817 34.812 16.924 53.684-.322 27.102-7.656 55.545-26.279 75.992-13.542 15.116-35.35 22.432-55.153 17.137-11.843-2.629-20.501-12.289-25.42-22.933-4.67 26.19-9.302 52.378-13.937 78.568h-43.309c12.684-70.16 25.367-140.338 38.069-210.48 14.006-.019 27.996-.019 42.004 0-1.02 6.136-2.13 12.27-3.096 18.425 6.262-8.658 13.972-16.976 24.437-20.34m-12.379 37.657c-12.862 6.206-18.194 20.911-21.11 33.953-2.396 13.04-4.15 27.8 2.97 39.748 4.168 7.192 13.257 10.108 21.146 8.569 8.622-1.216 15.492-7.728 19.607-15.062 6.69-11.968 9.015-25.885 9.14-39.463-.125-7.871-1.127-16.386-6.153-22.79-5.993-7.46-17.21-8.497-25.6-4.955zm0 0M365.103 351.597c14.438-.035 28.892 0 43.328-.018-4.633 25.975-9.248 51.95-13.882 77.907-1.538 8.855-3.273 17.798-2.79 26.833.16 5.796 3.81 11.753 9.713 13.13 9.124 2.11 19.196-1.717 24.76-9.23 5.527-7.316 7.781-16.494 9.516-25.35 5.153-27.763 10.323-55.508 15.475-83.272 14.437-.035 28.873 0 43.31-.018-9.338 50.697-18.677 101.377-28.015 152.074-13.846-.018-27.693 0-41.521-.018 1.306-7.103 2.612-14.204 3.9-21.288-6.118 9.41-14.06 18.21-24.884 22.128-12.665 4.974-27.71 5.135-39.894-1.27-10.017-5.438-16.028-16.225-17.835-27.208-1.896-11.325.142-22.791 2.11-33.936 5.565-30.16 11.164-60.303 16.709-90.464zm0 0"/><path d="M71.414 351.454c54.526-.018 109.054.09 163.58-.054-12.164 9.142-21.216 21.7-27.675 35.35-32.773 0-65.546.07-98.301-.018-2.577.428-4.15-1.932-5.886-3.328-10.536-10.68-21.164-21.288-31.718-31.95zm0 0M99.25 405.21c3.685 11.164 7.12 22.415 10.841 33.577 11.575-.053 23.13 0 34.705-.035-9.41 6.905-18.82 13.864-28.14 20.895 3.56 11.27 7.246 22.485 10.788 33.773-9.285-7.066-18.748-13.9-28.086-20.858-9.608 6.726-18.892 13.882-28.337 20.805 3.56-11.235 7.227-22.45 10.788-33.702-9.304-7.049-18.695-14.008-28.105-20.931 11.556.071 23.131 0 34.688.053 3.684-11.162 7.208-22.396 10.858-33.577zm0 0M130.18 410.004c23.06.054 46.101-.018 69.161.036-2.559 11.574-3.381 23.435-3.292 35.278-10.357 0-20.698.018-31.055 0-11.54-11.825-23.221-23.525-34.813-35.314zm0 0M165.333 469.056c11.325-.233 22.666-.125 33.99-.09 3.721 13.542 10.842 26.208 21.647 35.33-30.234-.143-60.467 0-90.7-.071 11.574-11.824 23.489-23.326 35.063-35.17zm0 0M104.224 530.002c1.556-2.11 4.131-2.378 6.547-2.288 117.05.053 234.1-.018 351.132.035-2.183 11.752-4.401 23.506-6.584 35.277-127.944 0-255.89.036-383.833-.036 10.877-11.019 21.807-22.003 32.738-32.988zm0 0" fill="#b3111c"/><path d="M0 702.934c132.989.25 265.961.036 398.95.107 101.63-.143 203.258.305 304.889-.233l1.001 2.022H0zm0 0" fill="#fff87f"/><path style="line-height:normal;font-variant-ligatures:normal;font-variant-position:normal;font-variant-caps:normal;font-variant-numeric:normal;font-variant-alternates:normal;font-feature-settings:normal;text-indent:0;text-align:start;text-decoration-line:none;text-decoration-style:solid;text-decoration-color:#000;text-transform:none;text-orientation:mixed;white-space:normal;shape-padding:0;isolation:auto;mix-blend-mode:normal;solid-color:#000;solid-opacity:1" d="M549.23 73.325c-39.679-.661-76.967 22.551-93.193 60.267-19.141 44.495-3.471 96.385 37.1 122.844 38.985 25.425 90.182 20.33 123.406-11.562l14.563 12.927-4.629-74.78-72.423 6.37 15.489 13.751c-11.328 9.34-25.665 11.105-39.64 8.433a41.02 41.02 0 01-12.164-11.969 41.043 41.043 0 01-1.938-41.997 41.052 41.052 0 0136.017-21.695 4.731 4.731 0 00-.04-9.463h-.002c-18.541.089-35.562 10.347-44.31 26.695a50.539 50.539 0 002.301 51.544 86.345 86.345 0 01-12.244-7.377 57.284 57.284 0 0113.085-62.945 57.301 57.301 0 0165.646-10.098 4.732 4.732 0 104.243-8.46 66.634 66.634 0 00-19.79-6.32c-20.3-3.118-41.403 3.253-56.689 18.088-15.609 15.15-22.561 36.618-19.586 57.41-3.348-4.261-6.112-8.94-8.419-13.791 1.127-19.57 9.893-38.488 25.446-52.13 26.012-22.816 64.175-24.905 92.527-5.072a4.732 4.732 0 105.428-7.752c-15.941-11.15-34.678-16.138-53.084-15.128-18.406 1.01-36.486 8.016-51.112 20.845a84.331 84.331 0 00-25.794 41.293c-1.748-6.183-3.01-12.108-4.038-17.35 17.762-39.409 60.975-60.739 103.16-50.655a4.73 4.73 0 102.2-9.202 99.738 99.738 0 00-21.515-2.72z" color="#000" font-weight="400" font-family="sans-serif" overflow="visible" fill="#ed174b"/></svg>