<?xml version="1.0" encoding="UTF-8" standalone="no"?>
<!-- Created with Inkscape (http://www.inkscape.org/) -->

<svg
   xmlns:dc="http://purl.org/dc/elements/1.1/"
   xmlns:cc="http://creativecommons.org/ns#"
   xmlns:rdf="http://www.w3.org/1999/02/22-rdf-syntax-ns#"
   xmlns:svg="http://www.w3.org/2000/svg"
   xmlns="http://www.w3.org/2000/svg"
   xmlns:sodipodi="http://sodipodi.sourceforge.net/DTD/sodipodi-0.dtd"
   xmlns:inkscape="http://www.inkscape.org/namespaces/inkscape"
   width="704.84039mm"
   height="704.83002mm"
   viewBox="0 0 704.84039 704.83002"
   version="1.1"
   id="svg8"
   inkscape:version="0.92.4 (5da689c313, 2019-01-14)"
   sodipodi:docname="CUP-G.svg">
  <defs
     id="defs2" />
  <sodipodi:namedview
     id="base"
     pagecolor="#ffffff"
     bordercolor="#666666"
     borderopacity="1.0"
     inkscape:pageopacity="0.0"
     inkscape:pageshadow="2"
     inkscape:zoom="0.088388348"
     inkscape:cx="620.14082"
     inkscape:cy="1290.083"
     inkscape:document-units="mm"
     inkscape:current-layer="layer1"
     showgrid="false"
     fit-margin-top="0"
     fit-margin-left="0"
     fit-margin-right="0"
     fit-margin-bottom="0"
     inkscape:snap-smooth-nodes="false"
     inkscape:snap-midpoints="false"
     inkscape:snap-intersection-paths="false"
     inkscape:object-paths="false"
     inkscape:window-width="1920"
     inkscape:window-height="1018"
     inkscape:window-x="-8"
     inkscape:window-y="-8"
     inkscape:window-maximized="1" />
  <metadata
     id="metadata5">
    <rdf:RDF>
      <cc:Work
         rdf:about="">
        <dc:format>image/svg+xml</dc:format>
        <dc:type
           rdf:resource="http://purl.org/dc/dcmitype/StillImage" />
        <dc:title></dc:title>
      </cc:Work>
    </rdf:RDF>
  </metadata>
  <g
     inkscape:label="Capa 1"
     inkscape:groupmode="layer"
     id="layer1"
     transform="translate(300.25947,-28.628936)">
    <g
       id="surface1"
       transform="matrix(0.35277778,0,0,0.35277778,-300.25947,26.850567)">
      <path
         id="path817"
         d="M 0,5.171875 C 664.30078,4.917969 1328.6523,5.121094 1992.9531,5.070312 c -0.2031,655.863278 0.1016,1311.726588 -0.1523,1967.593788 0.1523,8.2109 0.8086,16.4765 2.332,24.5898 -288.0859,1.5234 -576.168,0.2539 -864.25,0.6602 C 753.90625,1997.7109 376.97656,1998.3203 0,1997.6094 V 5.171875 M 672.51562,1048.1953 c -50.05078,49.3906 -73.07421,120.3828 -76.52343,189.3945 -2.58594,47.4649 3.65234,97.9219 30.98437,138.0313 23.78516,35.9023 63.84375,59.0234 105.9336,65.9219 57.75781,9.9883 122.3125,0.8086 168.05468,-38.1836 40.16016,-33.7227 60.29297,-84.6836 69.97657,-134.9883 -39.65235,0 -79.3086,0 -118.91407,0.051 -6.13672,21.5 -13.58984,44.4219 -31.58984,59.0742 -23.53125,19.5234 -64.30078,19.625 -82.96094,-6.6914 -18.8164,-27.0274 -20.03125,-61.7617 -18.8164,-93.5586 2.43359,-38.082 9.9414,-78.5469 35.09375,-108.668 20.48437,-25 59.07421,-32.8593 87.57421,-17.6445 20.03125,11.6094 25.86329,36.1016 26.92579,57.6523 39.55468,-0.1484 79.16015,0 118.71484,-0.098 -1.21875,-38.3867 -9.02734,-78.3477 -32.96094,-109.4297 -24.94922,-34.1289 -66.07812,-52.94141 -107.2539,-57.85938 -62.57422,-8.11328 -129.61329,11.51168 -174.23829,56.99608 m 946.80468,-51.92577 c -29.664,9.53517 -51.5195,33.11327 -69.2695,57.65627 2.7383,-17.4453 5.8828,-34.836 8.7734,-52.2305 -39.707,-0.051 -79.3633,-0.051 -119.0664,0 -36.0039,198.8281 -71.957,397.7578 -107.9101,596.6367 40.9218,0 81.8437,0 122.7656,0 13.1367,-74.2382 26.2695,-148.4726 39.5039,-222.7109 13.9453,30.1719 38.4883,57.5547 72.0586,65.0078 56.1367,15.0078 117.9531,-5.7305 156.3398,-48.5781 52.7891,-57.961 73.5782,-138.586 74.4922,-215.4102 -0.3047,-53.4961 -10.1914,-111.6601 -47.9726,-152.1758 -32.4024,-34.83589 -85.8008,-42.80074 -129.7149,-28.19527 m -1416.88671,5.01957 c 29.91797,30.2226 60.04297,60.2929 89.91016,90.5664 4.91797,3.957 9.37891,10.6484 16.68359,9.4336 92.84766,0.25 185.75,0.051 278.64844,0.051 18.30859,-38.6914 43.96875,-74.289 78.44922,-100.2031 -154.5625,0.4063 -309.12891,0.1016 -463.69141,0.1524 m 832.50391,0.4062 c -15.7188,85.4961 -31.5898,170.9375 -47.36328,256.4336 -5.57813,31.5899 -11.35547,64.0938 -5.98047,96.1953 5.12109,31.1328 22.16015,61.711 50.55465,77.125 34.5352,18.1563 77.1836,17.6992 113.086,3.6016 30.6797,-11.1055 53.1953,-36.0547 70.5351,-62.7266 -3.6484,20.0821 -7.3515,40.211 -11.0547,60.3438 39.1993,0.051 78.4493,0 117.6993,0.051 26.4687,-143.7071 52.9414,-287.3672 79.4101,-431.0743 -40.9219,0.051 -81.8437,-0.051 -122.7656,0.051 -14.6055,78.6992 -29.2617,157.3477 -43.8672,236.0469 -4.918,25.1016 -11.3086,51.1172 -26.9766,71.8555 -15.7695,21.2968 -44.3203,32.1484 -70.1835,26.164 -16.7344,-3.9023 -27.0782,-20.789 -27.5352,-37.2187 -1.3672,-25.6094 3.5508,-50.961 7.9102,-76.0625 13.1367,-73.5782 26.2187,-147.2071 39.3515,-220.836 -40.9219,0.051 -81.8945,-0.051 -122.8203,0.051 m -753.59766,151.972 c -10.34765,31.6953 -20.33593,63.539 -30.78125,95.1797 -32.75781,-0.1524 -65.57031,0.051 -98.32812,-0.1524 26.67578,19.625 53.29687,39.3516 79.66797,59.332 -10.09375,31.8946 -20.48828,63.6875 -30.57813,95.5352 26.77344,-19.625 53.08985,-39.9102 80.32422,-58.9766 26.46875,19.7266 53.29297,39.0977 79.61328,59.125 -10.03906,-31.9961 -20.48828,-63.789 -30.57812,-95.7343 26.41797,-19.9297 53.09375,-39.6563 79.76562,-59.2305 -32.80859,0.1016 -65.5664,-0.051 -98.375,0.1016 -10.55078,-31.6407 -20.28515,-63.5352 -30.73047,-95.1797 m 87.67578,13.5898 c 32.85938,33.418 65.97266,66.582 98.6836,100.1016 29.35937,0.051 58.67187,0 88.03125,0 -0.25391,-33.5703 2.07812,-67.1914 9.33203,-100 -65.36719,-0.1524 -130.67969,0.051 -196.04688,-0.1016 m 99.64454,167.3906 c -32.8086,33.5704 -66.58204,66.1758 -99.39063,99.6914 85.69922,0.2032 171.39844,-0.2031 257.10156,0.2032 -30.6289,-25.8594 -50.8125,-61.7617 -61.35937,-100.1485 -32.10156,-0.1015 -64.25,-0.4062 -96.35156,0.2539 M 295.4375,1507.4102 c -30.98438,31.1367 -61.96875,62.2734 -92.80078,93.5078 362.67578,0.2031 725.35547,0.1015 1088.03128,0.1015 6.1875,-33.3672 12.4765,-66.6836 18.664,-99.9961 -331.74606,-0.1523 -663.53903,0.051 -995.33591,-0.1015 -6.84765,-0.2539 -14.14843,0.5078 -18.55859,6.4883 z m 0,0"
         style="fill:#fff000;fill-opacity:1;fill-rule:nonzero;stroke:none"
         inkscape:connector-curvature="0" />
      <path
         id="path819"
         d="m 1584.2305,1103.0117 c 23.7812,-10.039 55.5781,-7.0976 72.5664,14.0469 14.2461,18.1523 17.0859,42.2891 17.4414,64.6016 -0.3555,38.4882 -6.9453,77.9375 -25.9102,111.8632 -11.664,20.7891 -31.1367,39.25 -55.5781,42.6954 -22.3633,4.3632 -48.125,-3.9024 -59.9414,-24.2891 -20.1836,-33.8711 -15.2109,-75.707 -8.418,-112.6719 8.2657,-36.9687 23.3789,-78.6523 59.8399,-96.2461 z m 0,0"
         style="fill:#fff000;fill-opacity:1;fill-rule:nonzero;stroke:none"
         inkscape:connector-curvature="0" />
      <path
         id="path823"
         d="m 672.51562,1048.1953 c 44.625,-45.4844 111.66407,-65.10936 174.23829,-56.99608 41.17578,4.91797 82.30468,23.73048 107.2539,57.85938 23.9336,31.082 31.74219,71.043 32.96094,109.4297 -39.55469,0.098 -79.16016,-0.051 -118.71484,0.098 -1.0625,-21.5507 -6.89454,-46.0429 -26.92579,-57.6523 -28.5,-15.2148 -67.08984,-7.3555 -87.57421,17.6445 -25.15235,30.1211 -32.66016,70.586 -35.09375,108.668 -1.21485,31.7969 0,66.5312 18.8164,93.5586 18.66016,26.3164 59.42969,26.2148 82.96094,6.6914 18,-14.6523 25.45312,-37.5742 31.58984,-59.0742 39.60547,-0.051 79.26172,-0.051 118.91407,-0.051 -9.6836,50.3047 -29.81641,101.2656 -69.97657,134.9883 -45.74218,38.9922 -110.29687,48.1719 -168.05468,38.1836 -42.08985,-6.8985 -82.14844,-30.0196 -105.9336,-65.9219 -27.33203,-40.1094 -33.57031,-90.5664 -30.98437,-138.0313 3.44922,-69.0117 26.47265,-140.0039 76.52343,-189.3945 z m 0,0"
         style="fill:#000000;fill-opacity:1;fill-rule:nonzero;stroke:none"
         inkscape:connector-curvature="0" />
      <path
         id="path825"
         d="m 1619.3203,996.26953 c 43.9141,-14.60547 97.3125,-6.64062 129.7149,28.19527 37.7812,40.5157 47.6679,98.6797 47.9726,152.1758 -0.914,76.8242 -21.7031,157.4492 -74.4922,215.4102 -38.3867,42.8476 -100.2031,63.5859 -156.3398,48.5781 -33.5703,-7.4531 -58.1133,-34.8359 -72.0586,-65.0078 -13.2344,74.2383 -26.3672,148.4727 -39.5039,222.7109 -40.9219,0 -81.8438,0 -122.7656,0 35.9531,-198.8789 71.9062,-397.8086 107.9101,-596.6367 39.7031,-0.051 79.3594,-0.051 119.0664,0 -2.8906,17.3945 -6.0351,34.7852 -8.7734,52.2305 17.75,-24.543 39.6055,-48.1211 69.2695,-57.65627 m -35.0898,106.74217 c -36.461,17.5938 -51.5742,59.2774 -59.8399,96.2461 -6.7929,36.9649 -11.7656,78.8008 8.418,112.6719 11.8164,20.3867 37.5781,28.6523 59.9414,24.2891 24.4414,-3.4454 43.9141,-21.9063 55.5781,-42.6954 18.9649,-33.9257 25.5547,-73.375 25.9102,-111.8632 -0.3555,-22.3125 -3.1953,-46.4493 -17.4414,-64.6016 -16.9883,-21.1445 -48.7852,-24.0859 -72.5664,-14.0469 z m 0,0"
         style="fill:#000000;fill-opacity:1;fill-rule:nonzero;stroke:none"
         inkscape:connector-curvature="0" />
      <path
         id="path827"
         d="m 1034.9375,1001.6953 c 40.9258,-0.1016 81.8984,0 122.8203,-0.051 -13.1328,73.6289 -26.2148,147.2578 -39.3515,220.836 -4.3594,25.1015 -9.2774,50.4531 -7.9102,76.0625 0.457,16.4297 10.8008,33.3164 27.5352,37.2187 25.8632,5.9844 54.414,-4.8672 70.1835,-26.164 15.668,-20.7383 22.0586,-46.7539 26.9766,-71.8555 14.6055,-78.6992 29.2617,-157.3477 43.8672,-236.0469 40.9219,-0.1016 81.8437,0 122.7656,-0.051 -26.4687,143.7071 -52.9414,287.3672 -79.4101,431.0743 -39.25,-0.051 -78.5,0 -117.6993,-0.051 3.7032,-20.1328 7.4063,-40.2617 11.0547,-60.3438 -17.3398,26.6719 -39.8554,51.6211 -70.5351,62.7266 -35.9024,14.0976 -78.5508,14.5547 -113.086,-3.6016 -28.3945,-15.414 -45.43356,-45.9922 -50.55465,-77.125 -5.375,-32.1015 0.40234,-64.6054 5.98047,-96.1953 15.77348,-85.4961 31.64448,-170.9375 47.36328,-256.4336 z m 0,0"
         style="fill:#000000;fill-opacity:1;fill-rule:nonzero;stroke:none"
         inkscape:connector-curvature="0" />
      <path
         id="path829"
         d="m 202.43359,1001.2891 c 154.5625,-0.051 309.12891,0.2539 463.69141,-0.1524 -34.48047,25.9141 -60.14063,61.5117 -78.44922,100.2031 -92.89844,0 -185.80078,0.1993 -278.64844,-0.051 -7.30468,1.2148 -11.76562,-5.4766 -16.68359,-9.4336 -29.86719,-30.2735 -59.99219,-60.3438 -89.91016,-90.5664 z m 0,0"
         style="fill:#b3111c;fill-opacity:1;fill-rule:nonzero;stroke:none"
         inkscape:connector-curvature="0" />
      <path
         id="path831"
         d="m 281.33984,1153.668 c 10.44532,31.6445 20.17969,63.539 30.73047,95.1797 32.8086,-0.1524 65.56641,0 98.375,-0.1016 -26.67187,19.5742 -53.34765,39.3008 -79.76562,59.2305 10.08984,31.9453 20.53906,63.7382 30.57812,95.7343 -26.32031,-20.0273 -53.14453,-39.3984 -79.61328,-59.125 -27.23437,19.0664 -53.55078,39.3516 -80.32422,58.9766 10.08985,-31.8477 20.48438,-63.6406 30.57813,-95.5352 -26.3711,-19.9804 -52.99219,-39.707 -79.66797,-59.332 32.75781,0.2031 65.57031,0 98.32812,0.1524 10.44532,-31.6407 20.4336,-63.4844 30.78125,-95.1797 z m 0,0"
         style="fill:#b3111c;fill-opacity:1;fill-rule:nonzero;stroke:none"
         inkscape:connector-curvature="0" />
      <path
         id="path833"
         d="m 369.01562,1167.2578 c 65.36719,0.1524 130.67969,-0.051 196.04688,0.1016 -7.25391,32.8086 -9.58594,66.4297 -9.33203,100 -29.35938,0 -58.67188,0.051 -88.03125,0 -32.71094,-33.5196 -65.82422,-66.6836 -98.6836,-100.1016 z m 0,0"
         style="fill:#b3111c;fill-opacity:1;fill-rule:nonzero;stroke:none"
         inkscape:connector-curvature="0" />
      <path
         id="path835"
         d="m 468.66016,1334.6484 c 32.10156,-0.6601 64.25,-0.3554 96.35156,-0.2539 10.54687,38.3868 30.73047,74.2891 61.35937,100.1485 -85.70312,-0.4063 -171.40234,0 -257.10156,-0.2032 32.80859,-33.5156 66.58203,-66.121 99.39063,-99.6914 z m 0,0"
         style="fill:#b3111c;fill-opacity:1;fill-rule:nonzero;stroke:none"
         inkscape:connector-curvature="0" />
      <path
         id="path837"
         d="m 295.4375,1507.4102 c 4.41016,-5.9805 11.71094,-6.7422 18.55859,-6.4883 331.79688,0.1523 663.58985,-0.051 995.33591,0.1015 -6.1875,33.3125 -12.4765,66.6289 -18.664,99.9961 -362.67581,0 -725.3555,0.1016 -1088.03128,-0.1015 30.83203,-31.2344 61.8164,-62.3711 92.80078,-93.5078 z m 0,0"
         style="fill:#b3111c;fill-opacity:1;fill-rule:nonzero;stroke:none"
         inkscape:connector-curvature="0" />
      <path
         id="path839"
         d="m 0,1997.6094 c 376.97656,0.7109 753.90625,0.1015 1130.8828,0.3047 288.082,-0.4063 576.1641,0.8632 864.25,-0.6602 l 2.8399,5.7305 H 0 Z m 0,0"
         style="fill:#fff87f;fill-opacity:1;fill-rule:nonzero;stroke:none"
         inkscape:connector-curvature="0" />
    </g>
    <path
       style="color:#000000;font-style:normal;font-variant:normal;font-weight:normal;font-stretch:normal;font-size:medium;line-height:normal;font-family:sans-serif;font-variant-ligatures:normal;font-variant-position:normal;font-variant-caps:normal;font-variant-numeric:normal;font-variant-alternates:normal;font-feature-settings:normal;text-indent:0;text-align:start;text-decoration:none;text-decoration-line:none;text-decoration-style:solid;text-decoration-color:#000000;letter-spacing:normal;word-spacing:normal;text-transform:none;writing-mode:lr-tb;direction:ltr;text-orientation:mixed;dominant-baseline:auto;baseline-shift:baseline;text-anchor:start;white-space:normal;shape-padding:0;clip-rule:nonzero;display:inline;overflow:visible;visibility:visible;opacity:1;isolation:auto;mix-blend-mode:normal;color-interpolation:sRGB;color-interpolation-filters:linearRGB;solid-color:#000000;solid-opacity:1;vector-effect:none;fill:#ed174b;fill-opacity:1;fill-rule:nonzero;stroke:none;stroke-width:2.11666656;stroke-linecap:round;stroke-linejoin:round;stroke-miterlimit:4;stroke-dasharray:none;stroke-dashoffset:0;stroke-opacity:1;color-rendering:auto;image-rendering:auto;shape-rendering:auto;text-rendering:auto;enable-background:accumulate"
       d="m 248.96961,101.95423 c -39.67767,-0.66168 -76.96646,22.55067 -93.19192,60.26711 -19.14166,44.49495 -3.47119,96.38415 37.10076,122.84394 38.98444,25.4245 90.18135,20.32921 123.40518,-11.56238 l 14.56269,12.92743 -4.62863,-74.7813 -72.42311,6.37017 15.48891,13.75197 c -11.32794,9.34028 -25.66461,11.10446 -39.63914,8.43274 -4.76616,-3.04631 -8.93785,-7.0799 -12.16522,-11.96893 -8.31123,-12.59028 -9.05505,-28.69554 -1.93788,-41.99732 7.11723,-13.30174 20.93163,-21.62359 36.01756,-21.69506 a 4.7314966,4.7314966 0 0 0 -0.0402,-9.46285 h -0.002 c -18.54104,0.0889 -35.56211,10.34719 -44.30934,26.69556 -8.72385,16.3046 -7.83663,36.08729 2.30043,51.54334 -4.36603,-2.16121 -8.48856,-4.66165 -12.2437,-7.37716 -8.9,-21.61087 -3.81266,-46.54447 13.08448,-62.94407 17.51643,-17.00064 43.82988,-21.04733 65.64638,-10.09805 a 4.7323736,4.7323736 0 1 0 4.24295,-8.46041 c -6.34588,-3.18492 -13.0224,-5.27992 -19.78956,-6.31937 -20.30155,-3.11836 -41.40413,3.2521 -56.68937,18.08729 -15.60915,15.14954 -22.56167,36.61813 -19.58629,57.41 -3.34773,-4.26114 -6.11157,-8.94072 -8.41888,-13.79126 1.12726,-19.56952 9.89272,-38.48765 25.44599,-52.13001 26.01176,-22.81594 64.17475,-24.90487 92.52676,-5.07209 a 4.7321733,4.7321733 0 1 0 5.42783,-7.75137 c -15.94102,-11.15108 -34.678,-16.13856 -53.08396,-15.12858 -18.40597,1.00999 -36.48624,8.01677 -51.11142,20.84509 -12.81719,11.24244 -21.54385,25.69661 -25.7948,41.29289 -1.7475,-6.18238 -3.0097,-12.10757 -4.03734,-17.35048 17.76141,-39.40772 60.97468,-60.73794 103.16062,-50.65414 a 4.730747,4.730747 0 1 0 2.19884,-9.20187 c -5.88881,-1.40763 -11.79595,-2.25605 -17.66693,-2.58223 -1.28428,-0.0716 -2.56806,-0.1171 -3.84797,-0.13856 z"
       id="path879"
       inkscape:connector-curvature="0" />
  </g>
</svg>
