<svg xmlns="http://www.w3.org/2000/svg" id="Capa_1" data-name="Capa 1" viewBox="0 0 1042.06 1042" version="1.1" width="1042.0601" height="1042"><defs id="defs13"><radialGradient id="Degradado_sin_nombre_174" cx="775.98999" cy="356.03" r="323.34" gradientTransform="matrix(1.03 0 0 1.03 -398.59 -65.54)" gradientUnits="userSpaceOnUse"><stop offset="0" stop-color="#f3c006" id="stop4"/><stop offset=".33" stop-color="#e59616" id="stop6"/><stop offset=".66" stop-color="#d56224" id="stop8"/><stop offset="1" stop-color="#c40904" id="stop10"/></radialGradient><clipPath clipPathUnits="userSpaceOnUse" id="clipPath4683"><path d="M325 198.08l-.64-.14c-24.55084 2.81987-48.72266 8.29868-72.09 16.34-15.51621 5.21931-30.58803 11.67675-45.07 19.31-11.54535 6.00616-22.68577 12.76056-33.35 20.22-.7.65-1.93 1.07-2.24 2-1.8948.97109-3.68715 2.13025-5.35 3.46-6.85 5.31-13.72 10.62-20 16.57-5.51 4.54-10.38 9.78-15.42 14.82-2.32 2.7-5.4 5-7.08 8.11-4.63 4.38-8.5 9.51-12.31 14.6-2.7 3.57-5.87 7.06-7.85 11-7.76216 10.51525-14.49325 21.75382-20.1 33.56-1.62 1.28-2.31 3.25-3.16 5.05-1.09 2.5-2.75 4.83-2.83 7.65-2.82208 5.9567-5.24736 12.09341-7.26 18.37-2.16029 3.49787-3.48462 7.44691-3.87 11.54-.39137 1.0473-.69901 2.12402-.92 3.22-1.49 1.79-1.75 4.16-2.29 6.34-.58 2.81-1.74 5.54-1.57 8.47l-.08.35c-2.27 2.55-1.92 6.38-2.19 9.58-.41505 1.40702-.6963 2.85009-.84 4.31-1.86 4.21-2.14 9-2.12 13.62l-.1.56c-1.37 3.18-1.14 6.76-1.73 10.13-2.26 16.94-2.29 34.06-2 51.11.0902 11.01238.91202 22.00659 2.46 32.91.33 2.44.37 5 1.3 7.31l.24 1.29c-.13645 5.70346.7858 11.38279 2.72 16.75l.1.48c.22 3.58.15 7.52 2.16 10.65 1.46794 7.83175 3.47267 15.5533 6 23.11.22354 3.08981 1.08499 6.09977 2.53 8.84v-.78c.87489 3.77137 2.09676 7.45372 3.65 11 .29639 3.46006 1.56907 6.76486 3.67 9.53l.25.57c.0142 2.4925 1.01776 4.87731 2.79 6.63 11.24475 26.87997 26.80274 51.7437 46.06 73.61 11.10293 12.15769 23.08888 23.4785 35.86 33.87 6.82 5.22 14.2 10.55 23 11.67 4.12.38 9.14-1.12 10.93-5.19 2.4-2.41 1.88-6.26 1.94-9.38-.37-3.14-.1-6.7-2-9.39-.20524-1.4307-.53995-2.83982-1-4.21-.41-4-.94-8.18-3.06-11.65-2.29-9.21-4.83-18.39-7.87-27.37-.34-3.34-.94-6.85-3-9.61-2.2-7.82-4.57-15.63-7.26-23.3-.73-4.29-1.69-8.66-3.83-12.49l-.15-.51c-.52186-4.39598-1.79007-8.67067-3.75-12.64-.49965-2.44984-1.1679-4.86225-2-7.22-1.11-5.33-1.82-10.94-4.22-15.85-.19568-1.12258-.46289-2.2315-.8-3.32-.20142-4.35447-1.15552-8.64116-2.82-12.67-.23638-1.83228-.61078-3.6441-1.12-5.42-.3-3.93-.24-8.19-2.1-11.75-3.11103-20.68498-4.1895-41.62486-3.22-62.52 1.23-5.11.62-10.61 1.54-15.84.88667-7.12667 2.08667-14.20667 3.6-21.24l-.7-.75.69.51c1.19-7.15 3.45-14.05 5-21.12 2.28-6.94 5-13.82 7-20.82.78486-1.21138 1.45446-2.49365 2-3.83 3.69-9.41 8.45-18.34 13.27-27.21 5.46449-9.39043 11.68508-18.31998 18.6-26.7l-.08-.46c2.00041-1.99694 3.89946-4.09291 5.69-6.28 5.32-6.28 11.47-11.78 17.27-17.57 11.43-9.66 23.3-18.88 36.26-26.42v-.29c5.11-2.53 9.92-5.6 15-8.12 21.24056-10.87067 43.80241-18.93808 67.12-24 32.38-7.15 66.19-8.69 98.86-2.51 19 3.09 37.28 9.15 55.12 16.11 9.92 4.54 19.75 9.28 29.39 14.38v.21c13.32211 7.60522 26.06353 16.18529 38.12 25.67v.23c8.38017 6.76638 16.31032 14.07187 23.74 21.87 7.13 7.59 13.58 15.79 20 24 1.16 3.6 4.8 6.61 8.76 5.56 3.21-1.23 5.47-4 8-6.3v-.17c5.83-4.34 11.07-9.43 16.87-13.82V376c2.77912-1.87427 5.4501-3.90418 8-6.08 2.61-1.95 5.43-3.7 7.85-5.86 1-.66 2-1.36 2.9-2.1 3.7203-1.61185 7.0722-3.96665 9.85-6.92 4.93-2.68 9.51-6 14.3-8.91 3.17-.77 6.74-2.33 8.57-5.07 2.5043-1.2327 4.932-2.6152 7.27-4.14 2.5-.69 5.11-1.63 6.84-3.67 2.8778-1.16388 5.6569-2.55842 8.31-4.17 2.4602-.18933 4.7607-1.29146 6.45-3.09 2.9168-1.1258 5.7709-2.40765 8.55-3.84 3.53-.23 6.63-2.05 9.44-4l.5-.25c2.3489-.2212 4.5912-1.08628 6.48-2.5l1.51-.51c3.378-.47178 6.6166-1.65813 9.5-3.48l1.85-.59c2.6013-.18557 5.1083-1.05111 7.27-2.51 4.83-1.24 9.59-2.74 14.35-4.25 3.7103-.15825 7.3414-1.12403 10.64-2.83l.52-.12c4.57-.44 9.38-1 13.56-3 1.82-.28 3.62-.65 5.43-1.06 5.3063-.13439 10.5648-1.04056 15.61-2.69 3.1312-.29357 6.2453-.7475 9.33-1.36 5.48.34 10.88-.82 16.34-1.08 6.3-1.23 12.79-.28 19.06-1.68 8.92-.18 17.8467-.18 26.78 0 4.3 1.11 8.78.72 13.19 1 5.65.59 11.32 1.32 17 1.56 2.33.05 4.09-1.75 5.13-3.66 1.43-3.26.63-7.62-2.8-9.24-14.37-8.57-29.38-16.3-45.18-21.85-3.1717-2.04621-6.7775-3.32345-10.53-3.73l-.58-.19c-2.48-2.38-6.2-2.64-9.43-2.9-1.4289-.51933-2.8968-.92395-4.39-1.21-3.53-2-7.72-2.58-11.71-2.75-1.6882-.4661-3.41-.80044-5.15-1-4.0361-1.63861-8.396-2.32306-12.74-2l-.45-.08c-7.86-2-16.15-1.63-24.2-2.55-9.7796-.46371-19.5812.0118-29.27 1.42-3.4732.18359-6.9306.59447-10.35 1.23-5.6362-.0721-11.2393.87299-16.54 2.79l-.61.13c-4.3484.0767-8.6277 1.10051-12.54 3l-.45.14c-4.6589.47871-9.1941 1.78948-13.39 3.87l-.6.17c-2.7355.12292-5.4038.88677-7.79 2.23l.84.24c-1.3834.28985-2.7266.74652-4 1.36-2.7488.0698-5.3786 1.13591-7.4 3l-.57.22c-3.0997.43324-6.0164 1.72529-8.42 3.73l-.6.23c-2.53 0-4.66 1.36-6.44 3-11.8126 5.59156-23.1443 12.14708-33.88 19.6-1.7054 1.01348-3.3392 2.1428-4.89 3.38-2.55 1.7-5 3.54-7.4 5.43-4.25 3.16-8.4 6.46-12.39 9.95-3.93 3-7.74 8.62-13.4 6-.9541-.90133-1.83053-1.88146-2.62-2.93-8.34896-13.10489-18.19155-25.19588-29.33-36.03-13.61625-13.55574-28.92622-25.29618-45.55-34.93-31.2-18.36-66-30-101.53-36.51-36.93-6.51-74.89-9-112.2-4.28" id="path4685" fill="#0056a3"/></clipPath><style id="style2">.cls-33{fill:#fff}</style></defs><path d="M1040 521.5A519 518.5 0 01521 1040 519 518.5 0 012 521.5 519 518.5 0 01521 3a519 518.5 0 01519 518.5z" id="path183" fill="#0056a3" fill-opacity="1" stroke="none" stroke-width="12.70458984"/><ellipse cx="521" cy="521.5" rx="519" ry="518.5" id="ellipse17" clip-path="url(#clipPath4683)" fill="url(#Degradado_sin_nombre_174)"/><g id="_ffffffff" data-name="#ffffffff"><path class="cls-33" d="M720.3 421.82a351.58 351.58 0 0190.86-10.45c29.05-.09 59.15 5.68 83.6 22.12 18.15 12 32 29.87 40.35 49.84 6.88 15.78 10.45 32.78 12.51 49.82 2.68 27.46 1.77 55.59-5.74 82.26-5.1 18.68-13.46 36.7-25.71 51.8a109.17 109.17 0 01-42.52 32.3c-22.68 9.88-48 11.44-72.39 9.73-14.34-.3-28.53-2.68-42.54-5.55V807.2c.34 4.31-2.81 8.54-7.35 8.38-20.37.4-40.75 0-61.12.17-3.64-.09-7.64.36-10.85-1.72-2.8-1.95-3.6-5.63-3.56-8.84v-355a16.44 16.44 0 018.94-15.39c11.12-6 23.44-9.48 35.55-12.95m51.13 62.67c-4.21.76-8.3 2.14-12.56 2.64-.38 48.82 0 97.67-.18 146.5 18.39 4.62 37.51 6.58 56.42 4.7a68.08 68.08 0 0012-3.39c12.3-4.69 22-14.92 27.24-26.89 7.09-15.23 8.33-32.29 8.87-48.85-.6-18.51-1.8-38.17-12-54.27-7.53-12.36-21.39-19.68-35.45-21.65-14.7-2.71-29.71-1.02-44.37 1.18z" transform="translate(-355 -5)" id="path116" fill="#fff"/><path class="cls-33" d="M1084.26 411.6c14.68-.26 29.45-.85 44 1.15 16.71 1.87 33.28 6.28 48.29 13.95a107.41 107.41 0 0139.31 33.87c18.24 26 25.21 58.26 26.14 89.57 1.35 29.93-2.59 60.54-14.88 88.06-10.56 24.2-28.71 45.48-52.36 57.65-24.6 13-53.24 15.41-80.59 13.37-14.27-.19-28.31-2.91-42.3-5.46 0 35 .16 70.11-.09 105.16.25 4.58-4.59 7.09-8.61 6.75-21.35.14-42.7.1-64 0-3.71.15-8-1.55-9.15-5.42-1-3.25-.49-6.74-.63-10.09v-350c-.08-3.94.65-8.24 3.48-11.19 4.57-5 11.14-7.21 17.24-9.69 30.07-11.32 62.19-16 94.14-17.72m-10.62 71.73a93.76 93.76 0 00-21.83 4.52c.26 48.53.1 97.08.08 145.61a160.17 160.17 0 0056.2 4.91 54.08 54.08 0 0023.13-9.3c8.5-6 14.31-15.13 18.15-24.67 7-18.56 7.83-38.76 6.76-58.36-1.15-12.29-3-24.82-8.56-36a46.51 46.51 0 00-23.64-22.63c-15.83-6.53-33.56-6.28-50.28-4.04z" transform="translate(-355 -5)" id="path118" fill="#fff"/></g></svg>