<?xml version="1.0" encoding="UTF-8" standalone="no"?>
<svg
   xmlns:dc="http://purl.org/dc/elements/1.1/"
   xmlns:cc="http://creativecommons.org/ns#"
   xmlns:rdf="http://www.w3.org/1999/02/22-rdf-syntax-ns#"
   xmlns:svg="http://www.w3.org/2000/svg"
   xmlns="http://www.w3.org/2000/svg"
   xmlns:sodipodi="http://sodipodi.sourceforge.net/DTD/sodipodi-0.dtd"
   xmlns:inkscape="http://www.inkscape.org/namespaces/inkscape"
   version="1.0"
   width="1483.000000pt"
   height="1487.000000pt"
   viewBox="0 0 1483.000000 1487.000000"
   preserveAspectRatio="xMidYMid meet"
   id="svg8"
   sodipodi:docname="Logotip_del_PSC.svg"
   inkscape:version="0.92.2 (5c3e80d, 2017-08-06)">
  <metadata
     id="metadata14">
    <rdf:RDF>
      <cc:Work
         rdf:about="">
        <dc:format>image/svg+xml</dc:format>
        <dc:type
           rdf:resource="http://purl.org/dc/dcmitype/StillImage" />
      </cc:Work>
    </rdf:RDF>
  </metadata>
  <defs
     id="defs12" />
  <sodipodi:namedview
     pagecolor="#ffffff"
     bordercolor="#666666"
     borderopacity="1"
     objecttolerance="10"
     gridtolerance="10"
     guidetolerance="10"
     inkscape:pageopacity="0"
     inkscape:pageshadow="2"
     inkscape:window-width="1920"
     inkscape:window-height="1013"
     id="namedview10"
     showgrid="false"
     inkscape:zoom="0.30008872"
     inkscape:cx="515.55741"
     inkscape:cy="898.9209"
     inkscape:window-x="-9"
     inkscape:window-y="-9"
     inkscape:window-maximized="1"
     inkscape:current-layer="svg8" />
  <path
     style="fill:#e10819;fill-opacity:1;stroke:none;stroke-width:0.13333334"
     d="M 1250.5918 14.775391 C 1172.8772 14.774349 1086.5327 14.784115 990.66602 14.800781 C 461.73268 14.934115 65.200391 15.466146 62.400391 16.132812 C 53.333724 18.266147 40.932552 25.465885 33.199219 33.199219 C 24.799219 41.599219 19.732682 50.667578 16.666016 62.267578 C 14.932682 68.934245 14.666016 178.93346 14.666016 991.4668 L 14.666016 1913.0664 L 17.466797 1922.1328 C 24.133464 1944.2661 41.734245 1960.6667 64.267578 1966 C 71.600911 1967.7333 185.46732 1968 991.33398 1968 C 1806.0007 1968 1910.9332 1967.7333 1918.5332 1966 C 1941.7332 1960.5333 1959.8667 1942.5331 1966 1919.0664 C 1967.7333 1912.3997 1968 1802.6658 1968 991.73242 C 1968 325.46576 1967.5999 70.133073 1966.5332 65.066406 C 1961.7332 41.866406 1943.5993 22.533203 1920.666 16.533203 C 1915.766 15.24987 1794.5939 14.782682 1250.5918 14.775391 z "
     transform="scale(0.75)"
     id="path2" />
  <path
     style="opacity:1;vector-effect:none;fill:#ffffff;fill-opacity:1;fill-rule:evenodd;stroke:#000000;stroke-width:0;stroke-linecap:butt;stroke-linejoin:miter;stroke-miterlimit:4;stroke-dasharray:none;stroke-dashoffset:0;stroke-opacity:1"
     d="M 1540.4336 1044.0469 C 1486.3519 1044.1267 1434.525 1057.0543 1392 1081.4668 C 1284.6667 1142.9335 1225.5991 1265.4667 1229.7324 1418 C 1231.7324 1489.8667 1245.4672 1549.9999 1271.8672 1602.5332 C 1297.7339 1653.8665 1335.8672 1696.1339 1379.8672 1721.8672 C 1414.5339 1742.2672 1450.0007 1754.1328 1493.334 1760.1328 C 1514.0007 1763.0661 1563.3342 1762.4008 1586.2676 1758.8008 C 1672.5342 1745.7341 1732.4008 1704.9324 1778.8008 1627.7324 C 1788.8008 1611.0658 1791.4671 1605.7327 1790.4004 1604.666 C 1789.7337 1603.866 1676.8007 1537.0665 1675.334 1536.5332 C 1674.534 1536.1332 1669.3324 1542.6669 1663.7324 1550.9336 C 1635.7324 1592.5336 1609.466 1612.6674 1572.666 1620.8008 C 1558.1327 1624.0008 1528.5331 1624.6661 1513.0664 1622.1328 C 1457.8664 1613.0661 1414.9335 1574.9324 1391.4668 1513.7324 C 1367.4668 1451.4658 1366.4008 1363.6001 1388.8008 1297.4668 C 1405.8674 1247.0668 1439.1995 1209.0674 1480.1328 1192.8008 C 1496.5328 1186.4008 1510.0007 1183.8664 1531.334 1183.0664 C 1567.8673 1181.7331 1593.466 1188.2673 1618.666 1205.334 C 1629.3327 1212.534 1647.8661 1232.6672 1656.1328 1245.8672 C 1660.1328 1252.1339 1663.8665 1257.334 1664.5332 1257.334 C 1665.1999 1257.334 1691.3332 1245.5997 1722.5332 1231.0664 C 1753.7332 1216.6664 1782.5337 1203.4663 1786.4004 1201.5996 L 1793.4668 1198.4004 L 1787.8672 1188.2676 C 1774.6672 1163.6009 1758.134 1140.9335 1739.334 1121.4668 C 1694.8007 1075.3335 1641.9993 1051.6007 1570.666 1045.334 C 1560.541 1044.459 1550.4487 1044.0321 1540.4336 1044.0469 z M 949.36133 1044.4648 C 943.03424 1044.4336 937.79935 1044.5341 934.66602 1044.8008 C 892.39935 1048.4008 861.06719 1056.5335 831.86719 1071.4668 C 784.93385 1095.4668 755.86654 1132.6673 744.5332 1183.334 C 741.7332 1196.0007 740.5332 1233.4676 742.5332 1250.2676 C 751.7332 1329.6009 801.33398 1372.9333 941.33398 1424 C 1013.6007 1450.4 1050.3995 1470.0005 1076.1328 1495.8672 C 1087.1995 1507.0672 1089.8664 1510.6668 1095.0664 1521.4668 C 1103.5997 1538.9335 1105.8669 1551.3332 1104.9336 1574.5332 C 1103.8669 1602.3999 1096.6669 1622.6664 1080.9336 1641.0664 C 1056.6669 1669.7331 1018.3992 1685.3329 967.19922 1687.5996 C 918.13255 1689.7329 871.20039 1676.3991 826.40039 1647.7324 C 813.46706 1639.4658 792.00078 1622.6661 780.80078 1612.1328 L 773.06641 1604.666 L 768.13281 1610.1328 C 765.46615 1613.0661 753.73333 1626.2673 742 1639.334 L 720.80078 1663.0664 L 728.5332 1670.2676 C 750.79987 1691.0676 775.6 1708.1332 804 1722.5332 C 843.06667 1742.3999 879.46654 1753.0668 922.5332 1757.4668 C 941.59987 1759.4668 986.5332 1758.2673 1004.5332 1755.334 C 1050.9332 1748.0007 1089.3333 1731.4667 1120 1706 C 1150.9333 1680.2667 1171.1995 1645.8672 1180.1328 1603.8672 C 1184.1328 1585.4672 1184.4008 1545.1993 1180.8008 1524.666 C 1170.6674 1468.266 1141.6 1432.1336 1078 1396.9336 C 1052.9333 1383.0669 1021.6 1369.8672 962 1347.8672 C 906 1327.2005 866.39909 1306.0001 845.73242 1285.4668 C 825.86576 1265.8668 818.39922 1245.4667 819.19922 1214 C 820.53255 1170.6667 845.2 1139.3342 890 1124.2676 C 911.6 1116.9342 943.06576 1113.7339 971.73242 1115.8672 C 1021.9991 1119.7339 1059.4663 1134.4001 1103.5996 1167.4668 C 1111.7329 1173.6001 1118.7992 1178.666 1119.1992 1178.666 C 1120.2659 1178.666 1168 1120.1341 1168 1118.8008 C 1168 1117.3341 1148.2659 1102.6669 1133.1992 1092.9336 C 1094.1326 1067.8669 1054.7993 1053.4673 1008.666 1047.334 C 997.16604 1045.834 968.34258 1044.5586 949.36133 1044.4648 z M 217.33398 1058.666 L 217.33398 1402 L 217.33398 1745.334 L 253.33398 1745.334 L 289.33398 1745.334 L 289.33398 1609.4668 L 289.33398 1473.4668 L 391.06641 1472.9336 C 503.33307 1472.4003 504.53398 1472.2673 539.33398 1463.334 C 590.53398 1450.134 631.33255 1422.7995 657.19922 1384.1328 C 670.13255 1364.5328 676.93255 1349.5999 683.19922 1326.5332 C 689.46589 1303.3332 691.06758 1286.5333 690.26758 1254 C 689.46758 1221.2 687.4668 1208.8003 679.4668 1184.9336 C 656.00013 1114.8003 598.66758 1071.7327 514.26758 1060.666 C 500.93424 1058.9327 476.53385 1058.666 357.86719 1058.666 L 217.33398 1058.666 z M 289.33398 1122.5332 L 393.06641 1123.0664 C 503.73307 1123.7331 501.73294 1123.5993 527.59961 1130.666 C 553.19961 1137.7327 576.53398 1152.8 591.33398 1172 C 609.86732 1196 618.80078 1226.1327 618.80078 1264.666 C 618.93411 1311.3327 608.13398 1342.4007 583.33398 1367.334 C 563.20065 1387.6007 543.46732 1397.0669 505.33398 1404.9336 C 496.93398 1406.6669 478.66706 1407.1996 392.40039 1407.5996 L 289.33398 1408.1328 L 289.33398 1265.334 L 289.33398 1122.5332 z "
     transform="scale(0.75)"
     id="rect847" />
</svg>
