<?xml version="1.0" encoding="UTF-8"?>
<svg enable-background="new 0 0 998 455.4" version="1.1" viewBox="0 0 998 455.4" xml:space="preserve" xmlns="http://www.w3.org/2000/svg" width="998" height="455.4">
<style type="text/css">
	.st0{fill:#6E236E;}
</style>
<path class="st0" d="m942 0h0.2c9 6.6 18.1 13 27.1 19.6-11.7 10.5-23.5 20.8-35.3 31.2-2.3 1.8-4.2 4.2-6.7 5.6-6.6-4.7-13.2-9.5-19.7-14.4 11.4-14 23-27.9 34.4-42z"/>
<path class="st0" d="m382.5 14.5c22.5-6.1 46.8-3 68 6.1-0.1 19.2-0.2 38.3 0.1 57.5-12.8-17.1-36.6-24.4-56.9-18.2-10.5 3.1-19.5 9.8-25.5 19-12 18.6-11.6 44.9 2.5 62.3 8.7 10.8 22.5 16.8 36.2 17.1 15.6 0.6 31-6.2 41.6-17.4 0.5-0.7 1.2-1.3 2.1-1.6-0.2 18.9-0.1 37.9-0.1 56.9-13.9 4.6-28.2 8.8-43 8.7-32.9-0.2-65.5-17.4-83.5-45.1-9.9-15.1-14.2-33.4-14.2-51.3 0-19.1 5.6-37.9 16.1-53.9 13.2-19.8 33.9-34.1 56.6-40.1z"/>
<path class="st0" d="m0 16.2c2.8-0.2 5.7-0.1 8.5-0.1h96.1c0.2 13.5 0.2 27.1 0 40.6-18.8-0.2-37.7 0-56.5-0.1-0.2 10.2 0 20.4-0.1 30.7 17.9 0.1 35.9 0 53.8 0 0 13.5 0.1 27 0 40.6h-53.7v31.3c18.9 0.1 37.9 0 56.8 0-0.1 13.2-0.1 26.4 0 39.6 0.2 1.4-1.6 0.8-2.4 1-34.1-0.1-68.2 0.1-102.4-0.1l-0.1-183.5z"/>
<path class="st0" d="m199.8 72c12.8-2.3 26.7-2 38.4 4.1 6.9 3.6 12.5 9.3 15.9 16.3 4.2 8.4 5.9 17.8 6.1 27.1v67.7c-0.1 4.2 0.2 8.4-0.1 12.7-14.8-0.1-29.5 0-44.3 0v-70.4c-0.1-6.2-1.2-12.8-5.3-17.7-3.2-3.8-8.3-5.2-13-5.6-7.1-0.5-14.8 2-19.1 7.9-4.4 6.1-5.4 13.9-5.3 21.2 0 21.5-0.1 42.9 0.1 64.4-14.9 0.3-29.8 0-44.8 0.2 0.1-41.7 0.1-83.4 0-125.1 14.9 0 29.8 0 44.7 0.1 0 5.3-0.3 10.6 0.1 15.8 6.4-9 15.6-16.7 26.6-18.7z"/>
<path class="st0" d="m526.6 71.4c15.8-1.9 32.2 0 46.8 6.2 18.6 7.6 33.9 24 38.1 43.9 3.5 15.5 2 32.3-5.4 46.4-9.8 18.9-29.7 30.8-50.3 34.5-16.1 3.1-32.6 1.9-48.1-3.3-9.2-3.1-17.7-8-24.9-14.5-8.7-7.9-15-18.2-17.9-29.6-3.6-14.5-2.9-30.2 3-44 4.3-9.9 11.1-18.5 19.8-24.8 11.3-8.4 25.1-13.3 38.9-14.8m4.6 38.7c-6.6 1.3-12.4 5-16.3 10.5-5.8 8.6-6.8 19.6-2.8 29.1 2.1 5 5.8 9.1 10.5 11.8 9.5 5.3 21 5.4 30.6 0.2 3.9-2.1 7.1-5.2 9.3-9.1 5-8.9 5.3-19.6 0.7-28.7-2.8-5.6-7.6-10-13.4-12.3-5.9-2.4-12.4-2.9-18.6-1.5z"/>
<path class="st0" d="m706.1 71.2c8.5-1 17.4-0.8 25.6 2 10.5 3.5 20.2 10.7 25.2 20.8 1.5-1.1 2-3 3.2-4.4 14.3-19.2 43.5-24.6 64.1-12.8 9.2 5.6 14.3 16 16.3 26.3 1.9 8.6 1.5 17.5 1.6 26.2 0.1 23.5 0 47 0 70.5-14.8 0-29.5 0-44.3-0.1l-0.3-0.4v-59.5c0-7.2 0.2-14.5-2-21.4-1.3-3.9-3.4-7.8-7-9.9-5.7-3.4-13-3.1-18.8-0.3-4.6 2.1-7.6 6.7-9.1 11.4-2.6 8-2 16.5-2.2 24.8-0.1 18.4 0 36.8 0 55.3-10.7 0.3-21.4 0-32 0.1-4.1-0.1-8.3 0.2-12.4-0.1 0-20.2 0.1-40.3-0.1-60.5-0.2-9 0-18.7-4.9-26.7-6.2-9.4-21.9-10-28.7-1-4.4 6-5.2 13.7-5.5 20.9-0.1 22.5 0 45-0.1 67.4-14.8-0.1-29.6 0-44.4-0.1v-125h44.4c0.1 5.1 0 10.2 0 15.3 1.1-0.9 2-1.9 2.8-3 7.5-8.4 17.6-14.1 28.6-15.8z"/>
<path class="st0" d="m864.8 74.8c14.8 0.1 29.5 0 44.3 0 0.1 20.4 0 40.7 0 61.1 0 6.4-0.3 12.9 1.5 19.1 1.2 4.2 3.6 8.3 7.5 10.5 5.3 3.1 11.7 3.3 17.6 2.8 5.8-0.5 11.5-3.7 14.2-8.9s3.2-11.6 3.2-17.5c0-22.3-0.1-44.7 0.1-67 14.7 0 29.5 0 44.2 0.1 0.4 7.2 0 14.5 0.2 21.7 0.1 18.6-0.1 37.2 0.1 55.8-0.5 11.7-3.3 23.9-11.2 32.9-8 9.3-19.8 14.4-31.6 16.6-12.8 2.3-25.9 2.7-38.9 1.4-12.5-1.5-25.4-4.7-35.2-13-6.6-5.4-11.3-12.7-13.7-20.9-2.8-9.1-2.6-18.8-2.5-28.2 0.1-22.3 0-44.4 0.2-66.5z"/>
<path class="st0" d="m406.2 249c14.7 0 29.4 0.1 44.2 0 0.3 10.7 0 21.4 0.1 32.1v170.2h-44.3c-0.1-4.7 0-9.3 0-14-3.4 4.7-7.6 8.7-12.6 11.7-6.1 3.6-13.2 5.4-20.2 6.2-3.9-0.3-7.8-0.3-11.7-0.1-11.8-1.2-23-5.7-32.3-13.1-8.9-7.3-15.7-16.8-19.8-27.5-9.6-24.8-4.6-55.4 14.4-74.5 15.4-16 40.2-21.9 61.3-15 7.9 2.6 15.1 7.1 20.8 13.2 0-29.7-0.2-59.4 0.1-89.2m-34.4 112.6c-7 1.5-13.1 5.9-16.9 12-5.5 9.3-5.6 20.8-0.4 30.2 2.6 4.6 6.6 8.2 11.3 10.3 8.5 3.8 18.2 3.7 26.7-0.1 4.8-2.2 8.8-5.9 11.3-10.5 4.6-8.6 4.8-18.8 0.7-27.6-2.7-5.8-7.5-10.3-13.4-12.8-6.1-2.4-12.9-3-19.3-1.5z"/>
<path class="st0" d="m0 267.5c23.2 0.1 46.4-0.1 69.7 0.1 14.3-0.1 29.2 1.4 42.1 8.1 9.3 4.6 16.8 12.1 21.4 21.3 6.6 12.7 7.4 27.4 6.2 41.4-1.1 12-4.8 24.1-12.7 33.4-7.7 9.1-19.1 14.5-30.7 16.8-15.9 3.2-32.1 1.7-48.2 2.1 0 20.2 0.1 40.4 0 60.7h-47.9v-184.4m48.2 39.2c-0.1 1-0.2 2-0.2 3.1 0.1 14.2-0.1 28.4 0.1 42.6 8.1-0.1 16.2 0.4 24.3-0.8 4.2-0.7 8.5-2 11.8-4.9s4.9-7 5.7-11.1c0.7-4.9 0.5-9.8-0.7-14.6-1.6-6-6.2-10.6-12.1-12.2-9.5-2.8-19.3-1.8-28.9-2.1z"/>
<path class="st0" d="m205.2 322.9c13.9-1.8 28-0.5 41.3 3.8 10.2 3.2 19.5 8.7 27.3 16 8.5 8.2 14.5 18.6 17.2 30.1 3.2 14.3 2.2 29.7-3.7 43.1-4.8 10.5-12.4 19.5-22 25.9-12.2 8.3-26.8 12.4-41.3 13.5-4.4-0.4-8.8-0.4-13.1 0-12.5-1-24.9-4.2-35.9-10.4-10.8-5.9-19.7-14.8-25.5-25.7-5.4-10.1-7.4-21.8-7.1-33.2 0.5-14.2 5.4-28.5 14.9-39.2 11.9-13.8 29.8-21.7 47.9-23.9m5.1 38.6c-8.2 1.7-15.1 7.2-18.6 14.8-3.8 8.7-3.5 18.7 1 27.1 2.2 4 5.5 7.3 9.4 9.5 9.6 5.2 21.1 5.2 30.7-0.1 5.7-3.3 9.9-8.7 11.7-15.1 3.3-11 0.2-24.2-9.1-31.3-6.9-5.3-16.5-6.6-25.1-4.9z"/>
<path class="st0" d="m492.2 332.3c14.1-8.5 31-11.1 47.2-9.9 11.5 0.8 22.9 3.9 32.7 10 10.1 6.3 18 15.7 22.4 26.8 4.8 11.7 6.3 24.5 6.1 37-31.1 0-62.1 0.1-93.2 0-0.4 6.3 1.3 12.6 4.7 17.9 4.5 6.5 12.5 9.5 20.2 9.8 5.2 0.1 10.7-0.1 15.2-2.8 3.4-2.1 6.4-5 8.6-8.4 0.9-0.4 2-0.2 3-0.2 11.6 0.1 23.2 0.1 34.8 0.1 1.7 0 3.3-0.3 5 0.2-2.7 10.3-8.2 20-16.4 26.9-11.4 9.7-26.3 14.6-41.1 15.6-4.6-0.3-9.1-0.3-13.7 0-8.4-0.6-16.7-2.4-24.5-5.3-10.9-4.2-21-11.1-28-20.6-7.9-10.5-11.7-23.7-12.2-36.7-0.5-12.3 1.3-25 6.9-36.1 4.9-10.1 12.6-18.6 22.3-24.3m28.4 21.8c-6.4 3.4-11 9.3-12.7 16.4 2.4 0.4 4.8 0.1 7.2 0.2 14.7 0 29.4 0.1 44.1 0-2.2-11.5-13.7-19.7-25.1-19.6-4.6 0.1-9.4 0.8-13.5 3z"/>
<path class="st0" d="m672.9 330.6c8.2-6.1 18.5-8.4 28.6-8.5 10.2 0 20.6 2.7 29 8.7 5.5 3.8 9.6 9.1 13 14.7 4.8-8 11.9-14.4 20.3-18.4 14-6.6 31.1-6.9 45 0.1 7.4 3.8 12.7 10.9 15.6 18.6 2.7 7.4 4.1 15.3 4 23.3 0.4 27.4 0 54.8 0.2 82.1-14.9 0.2-29.8 0.1-44.6 0.1 0-20.6 0.1-41.2 0-61.9 0-6.7 0-13.7-2.2-20.1-1.5-4.3-4.4-8.5-8.7-10.2-8.1-3.4-18.9-0.9-23.7 6.8-3.8 6.5-4.3 14.2-4.5 21.6-0.1 21.3 0 42.5 0 63.8-14.9 0-29.8 0.2-44.7-0.1 0.2-19.9 0.1-39.9 0.1-59.8 0-9 0.1-18.6-4.4-26.7-4.3-7.4-14.4-9.8-22.1-6.9-4 1.4-7.2 4.4-9 8.2-4 8.3-3.6 17.7-3.6 26.7v58.5c-14.9 0.1-29.7 0.1-44.6 0v-125c14.9 0 29.7-0.1 44.6 0 0 5.1-0.1 10.3 0 15.4 3.6-3.9 7.1-8 11.5-11h0.2z"/>
<line class="st0" x1="998" x2="998" y2="455"/>
</svg>
