<svg width="107" height="105" viewBox="0 0 107 105" fill="none" xmlns="http://www.w3.org/2000/svg">
<path d="M28.678 69.2483L40.922 67.3312C43.1482 66.9929 45.2631 68.4589 45.597 70.8271L47.4893 83.232C47.7119 84.3597 47.378 85.3746 46.7101 86.2768L35.0226 102.403C33.6869 104.207 31.1268 104.659 29.3458 103.305L15.2095 92.9303C13.4286 91.5771 12.9833 88.9833 14.319 87.179L26.0065 70.9399C26.6744 69.925 27.5649 69.3611 28.678 69.2483ZM85.2232 57.7457L104.146 51.5433C106.261 50.8666 107.485 48.4984 106.817 46.3558L101.363 29.4401C100.695 27.2974 98.3578 26.057 96.2429 26.7336L77.3203 32.936C76.3185 33.2743 75.428 34.0637 74.9828 34.9659L69.4173 46.1302C68.4155 48.1601 69.1946 50.6411 71.1982 51.656L82.2179 57.2946C83.1083 57.9712 84.2214 58.084 85.2232 57.7457ZM65.1875 27.8613L56.394 36.7702C54.8357 38.349 52.1643 38.349 50.606 36.7702L41.9238 27.9741C41.1446 27.1847 40.6994 26.1697 40.6994 25.042L40.6994 4.96874C40.6994 2.71331 42.4804 0.796204 44.8179 0.796204H62.2935C64.5196 0.796204 66.4119 2.60054 66.4119 4.96874L66.4119 25.042C66.4119 26.057 65.9667 27.0719 65.1875 27.8613ZM32.1286 35.0787L37.694 46.243C38.6958 48.2729 37.9167 50.7539 35.9131 51.7688L24.8934 57.4074C23.8917 57.8585 22.7786 57.9712 21.7768 57.6329L2.85415 51.4305C0.739265 50.7539 -0.48514 48.3857 0.182718 46.243L5.63689 29.4401C6.30474 27.2974 8.64224 26.057 10.7571 26.7336L29.6798 32.936C30.7928 33.3871 31.572 34.1765 32.1286 35.0787ZM59.622 83.0064L61.5143 70.6016C61.8482 68.3462 63.9631 66.7674 66.1893 67.1057L78.4333 69.0228C79.5464 69.2483 80.4369 69.8122 81.1048 70.7144L92.7923 86.9534C94.128 88.7578 93.6828 91.3515 91.9018 92.7048L77.7655 103.305C75.9845 104.659 73.4244 104.207 72.0887 102.403L60.2899 86.164C59.7333 85.2619 59.3994 84.1341 59.622 83.0064Z" fill="url(#paint0_linear)"/>
<path d="M53.5 66.4285C59.9548 66.4285 65.1875 61.1271 65.1875 54.5875C65.1875 48.0479 59.9548 42.7465 53.5 42.7465C47.0452 42.7465 41.8125 48.0479 41.8125 54.5875C41.8125 61.1271 47.0452 66.4285 53.5 66.4285Z" fill="#005CA9"/>
<path d="M101.252 52.4448C101.252 51.3171 101.363 50.1894 101.363 49.0617C101.363 41.2805 100.25 33.7248 98.2463 26.6202C97.6897 26.5074 97.0219 26.5074 96.4653 26.733C97.5784 32.146 98.135 37.7846 98.135 43.5359C98.135 46.919 97.9124 50.3022 97.4671 53.6853L101.252 52.4448Z" fill="#E30613"/>
<path d="M93.0149 34.1758C93.0149 41.8442 92.0131 49.1744 90.0095 56.1662L94.128 54.8129C95.0184 49.851 95.575 44.7763 95.575 39.5888C95.575 35.4163 95.2411 31.3565 94.6845 27.2968L92.7923 27.8606C92.9036 30.0033 93.0149 32.0331 93.0149 34.1758Z" fill="#E30613"/>
<path d="M91.01 28.5374L88.8951 29.214C88.3386 39.2506 86.0011 48.8362 82.2166 57.5196C83.107 57.9706 84.2201 58.0834 85.2219 57.7451L86.4463 57.294C89.3404 48.9489 90.8987 39.8145 90.8987 30.3417C91.01 29.7778 91.01 29.1012 91.01 28.5374Z" fill="#E30613"/>
<path d="M76.0947 54.362L79.5453 56.1663C83.4412 48.0468 86.0013 39.2506 86.8917 29.8906L84.8882 30.5673C83.3298 39.1379 80.2132 47.0318 76.0947 54.362Z" fill="#E30613"/>
<defs>
<linearGradient id="paint0_linear" x1="64.5844" y1="50.869" x2="-155.656" y2="123.559" gradientUnits="userSpaceOnUse">
<stop stop-color="#FFED00"/>
<stop offset="1" stop-color="#EF7D17"/>
</linearGradient>
</defs>
</svg>
