<svg xmlns="http://www.w3.org/2000/svg" width="300" height="194"><rect width="302.2" height="196.8" y="-.7" ry="0" fill="#4bbced"/><g style="line-height:125%;-inkscape-font-specification:Arial Bold" font-size="173.4" font-weight="700" letter-spacing="0" word-spacing="0" fill="#fff" stroke="none" font-family="Arial"><path d="M32.8 142V30.2H84l17.9 68.6 20.6-68.6h50.3V142H141V57.2L115.6 142H88L63.6 57.2V142zM232 31.2h33v68.3c0 8.9-.1 15.8-2.1 20.6-8 33-87.5 34.2-84.3-15.4l31.6.9c.5 17 13.2 15 16.4 13.2 4.4-2.6 5.1-10.7 5.4-18z"/></g><path d="M196.6 53.6v14H181v11.8h15.6v13.4H209V79.4h15.4V67.6H209v-14h-12.3z" fill="#fff"/><g style="line-height:125%;-inkscape-font-specification:Sans Bold" font-size="14.3" font-weight="700" letter-spacing="0" word-spacing="0" fill="#fff" font-family="Arial"><path d="M30 161h1.5v1.3c.2-.5.5-.8.9-1 .3-.4.7-.5 1.1-.5.8 0 1.4.4 2 1.2.4.8.7 1.8.7 3.2a6 6 0 01-.8 3.4c-.5.8-1.1 1.2-1.9 1.2-.3 0-.7-.1-1-.3l-.9-1v4.3H30zm1.6 4.1c0 1 .2 1.7.4 2.2.3.4.7.7 1 .7.5 0 .8-.2 1-.7.3-.4.5-1 .5-2s-.2-1.6-.4-2c-.3-.5-.6-.7-1-.7-.5 0-.8.2-1 .6-.3.5-.5 1.1-.5 2zM37.2 165.2c0-.8.1-1.5.4-2.2.3-.7.7-1.3 1.2-1.6.5-.4 1-.6 1.7-.6 1 0 1.8.4 2.4 1.3.6.8 1 1.9 1 3.2 0 1.3-.4 2.3-1 3.2-.7.8-1.4 1.3-2.4 1.3a3 3 0 01-1.7-.6c-.5-.3-1-.8-1.2-1.5-.3-.7-.4-1.5-.4-2.5zm1.7 0c0 1 .2 1.6.5 2 .3.5.7.7 1.1.7.4 0 .8-.2 1.1-.7.3-.4.5-1 .5-2 0-.8-.2-1.4-.5-1.9-.3-.4-.7-.6-1.1-.6-.4 0-.8.2-1.1.6-.3.5-.5 1.1-.5 2zM46.8 169.6H45V161h1.6v1.2c.2-.6.5-1 .7-1.1.2-.2.5-.3.7-.3.4 0 .8.1 1.2.4l-.6 2c-.3-.2-.5-.4-.8-.4l-.6.3a2 2 0 00-.4 1l-.1 2.8zM57.7 169.6v-1.3c-.3.4-.6.8-1 1a2 2 0 01-1.2.5 2 2 0 01-1.1-.4c-.4-.3-.6-.6-.8-1l-.2-2V161H55v6.2l.4.6c.2.2.4.2.7.2.2 0 .5 0 .7-.3.3-.2.4-.5.5-.8l.1-2.3V161h1.7v8.6zM66.9 169.6h-1.7v-4.4l-.1-1.8c-.1-.3-.2-.5-.4-.6a.8.8 0 00-.6-.3c-.3 0-.6.2-.8.4l-.5.8-.1 2v3.9H61V161h1.6v1.3c.5-1 1.3-1.5 2.1-1.5a2 2 0 011.7 1c.2.2.3.6.4 1v1.4zM72 161h1.5v1.2c.5-1 1.2-1.4 2-1.4.4 0 .8.1 1 .3.4.3.6.6.8 1l1-1c.3-.2.6-.3 1-.3s.8.1 1.2.4c.3.2.5.6.7 1.1l.2 1.8v5.5h-1.7v-5c0-.8 0-1.3-.2-1.6-.2-.3-.4-.5-.7-.5a1 1 0 00-.7.3c-.2.2-.4.5-.5.9v5.8h-1.8V165v-1.6a1 1 0 00-.4-.6.7.7 0 00-.5-.2 1 1 0 00-.7.3c-.2.2-.4.5-.4.8l-.2 1.8v4.2H72zM87.3 169.6v-1.3c-.2.4-.5.8-1 1a2 2 0 01-1.1.5 2 2 0 01-1.2-.4c-.3-.3-.6-.6-.7-1-.2-.5-.3-1.2-.3-2V161h1.7v4l.1 2.2.4.6c.1.2.4.2.6.2.3 0 .6 0 .8-.3l.5-.8V161H89v8.6zM96.5 169.6h-1.7v-4.4l-.1-1.8c0-.3-.2-.5-.3-.6a.8.8 0 00-.6-.3c-.3 0-.6.2-.8.4-.3.2-.4.5-.5.8l-.1 2v3.9h-1.7V161h1.5v1.3c.6-1 1.3-1.5 2.2-1.5a2 2 0 011.7 1c.1.2.3.6.3 1l.1 1.4zM104.2 169.6h-1.6v-1.3a3 3 0 01-1 1.1 2 2 0 01-1 .4c-.8 0-1.4-.4-2-1.2a6 6 0 01-.7-3.3 6 6 0 01.7-3.4c.6-.7 1.2-1 2-1 .7 0 1.3.3 1.9 1.1v-4.3h1.7zm-4.6-4.5c0 1 .1 1.6.3 2 .3.6.7.9 1.1.9.4 0 .8-.2 1-.7.3-.4.5-1.1.5-2 0-1-.2-1.7-.4-2.1-.3-.4-.7-.7-1-.7-.5 0-.8.3-1 .7-.4.4-.5 1-.5 1.9zM105.4 165.2c0-.8.2-1.5.5-2.2.2-.7.6-1.3 1.1-1.6.6-.4 1.1-.6 1.8-.6 1 0 1.7.4 2.4 1.3.6.8.9 1.9.9 3.2 0 1.3-.3 2.3-1 3.2-.6.8-1.4 1.3-2.3 1.3a3 3 0 01-1.7-.6c-.6-.3-1-.8-1.2-1.5-.3-.7-.5-1.5-.5-2.5zm1.8 0c0 1 .1 1.6.4 2 .3.5.7.7 1.2.7.4 0 .8-.2 1-.7.4-.4.5-1 .5-2 0-.8-.1-1.4-.4-1.9-.3-.4-.7-.6-1.1-.6-.5 0-.9.2-1.2.6-.3.5-.4 1.1-.4 2zM116.7 161h1.6v1.2c.6-1 1.2-1.4 2-1.4.4 0 .8.1 1 .3.4.3.6.6.8 1l1-1c.3-.2.6-.3 1-.3.5 0 .9.1 1.2.4.3.2.6.6.7 1.1.2.4.2 1 .2 1.8v5.5h-1.7v-5c0-.8 0-1.3-.2-1.6-.1-.3-.4-.5-.7-.5a1 1 0 00-.7.3c-.2.2-.3.5-.4.9l-.2 1.8v4h-1.7V165v-1.6a1 1 0 00-.3-.6.7.7 0 00-.6-.2 1 1 0 00-.7.3l-.4.8-.2 1.8v4.2h-1.7zM129.2 163.6l-1.6-.4c.2-.8.5-1.4 1-1.8.3-.4 1-.6 1.8-.6s1.3.1 1.7.4c.4.2.6.5.8.9.2.3.2 1 .2 2V168.4l.4 1.2h-1.7a10.4 10.4 0 01-.2-1c-.3.4-.6.7-1 .9-.3.2-.6.3-1 .3-.7 0-1.2-.3-1.6-.7-.4-.5-.5-1.1-.5-1.9 0-.5 0-.9.2-1.3l.7-.8 1.4-.6 1.7-.5v-.2c0-.5-.1-.8-.3-1-.2-.2-.5-.3-.9-.3a1 1 0 00-.7.3c-.2.1-.3.4-.4.8zm2.3 1.9l-1 .3c-.6.1-.9.3-1 .4a1 1 0 00-.3.8c0 .3 0 .6.2.8.2.3.4.4.7.4.3 0 .6-.2.9-.4l.4-.8v-1zm-1.9-5.5l.9-2.5h1.9l-1.7 2.5zM134.2 167.1l1.7-.3c0 .4.2.8.5 1 .2.2.5.3.9.3s.8 0 1-.3l.2-.6-.1-.4-.6-.3a7.7 7.7 0 01-2.6-1.1c-.5-.5-.8-1.1-.8-2 0-.7.3-1.3.7-1.8.4-.5 1.1-.8 2-.8 1 0 1.6.2 2 .6.4.4.7 1 1 1.7l-1.7.4c0-.4-.2-.6-.4-.8-.2-.2-.5-.3-.8-.3-.5 0-.8.1-1 .3l-.2.4c0 .2 0 .3.2.5l1.6.6c.9.3 1.5.6 1.9 1 .3.4.5 1 .5 1.7a3 3 0 01-.7 2c-.5.6-1.2.9-2.2.9a3 3 0 01-2-.7c-.6-.5-1-1.2-1-2zM145.1 159.8v-2h1.7v2zm1.7 1.2v8.3l-.1 2.3c-.1.5-.3.8-.6 1-.4.3-.7.5-1.2.5l-.6-.1-.6-.2.3-2a3.2 3.2 0 00.4.1l.5-.1.2-.4V161zM152.8 169.6v-1.3c-.2.4-.5.8-.9 1a2 2 0 01-1.2.5 2 2 0 01-1.2-.4l-.7-1c-.2-.5-.2-1.2-.2-2V161h1.7v6.2l.4.6c.2.2.4.2.6.2.3 0 .6 0 .8-.3.3-.2.4-.5.5-.8l.1-2.3V161h1.7v8.6zM155.6 167.1l1.7-.3c0 .4.2.8.4 1 .3.2.6.3 1 .3s.8 0 1-.3l.2-.6-.1-.4-.6-.3a7.7 7.7 0 01-2.6-1.1c-.5-.5-.8-1.1-.8-2 0-.7.3-1.3.7-1.8.4-.5 1.1-.8 2-.8 1 0 1.6.2 2 .6.4.4.7 1 .9 1.7l-1.6.4c0-.4-.2-.6-.4-.8-.2-.2-.5-.3-.8-.3-.5 0-.8.1-1 .3l-.2.4c0 .2 0 .3.2.5l1.6.6c.9.3 1.5.6 1.9 1 .3.4.5 1 .5 1.7a3 3 0 01-.7 2c-.5.6-1.3.9-2.2.9a3 3 0 01-2.1-.7c-.5-.5-.8-1.2-1-2zM166 161v1.8H165v4.7l.2.3h.3l.6-.1.2 1.7c-.4.3-.8.4-1.4.4l-.8-.2-.5-.6-.3-.9V162.8h-.8V161h.8v-1.7l1.7-1.3v3zM166.9 165.2c0-.8 0-1.5.4-2.2.3-.7.6-1.3 1.2-1.6.5-.4 1-.6 1.7-.6 1 0 1.7.4 2.4 1.3.6.8.9 1.9.9 3.2 0 1.3-.3 2.3-1 3.2-.6.8-1.4 1.3-2.3 1.3a3 3 0 01-1.7-.6c-.5-.3-1-.8-1.2-1.5-.3-.7-.4-1.5-.4-2.5zm1.7 0c0 1 .2 1.6.5 2 .3.5.6.7 1 .7.5 0 .9-.2 1.2-.7.3-.4.4-1 .4-2 0-.8-.1-1.4-.4-1.9-.3-.4-.7-.6-1.1-.6-.5 0-.8.2-1.1.6-.3.5-.5 1.1-.5 2z"/></g><g style="line-height:125%;-inkscape-font-specification:Sans Bold" font-size="14.3" font-weight="700" letter-spacing="0" word-spacing="0" font-family="Arial"><path d="M185 161h1.5v1.3c.2-.5.5-.8.9-1 .3-.4.7-.5 1.1-.5.8 0 1.4.4 2 1.2.4.8.7 1.8.7 3.2a6 6 0 01-.8 3.4c-.5.8-1.1 1.2-1.9 1.2-.3 0-.7-.1-1-.3l-.9-1v4.3H185zm1.6 4.1c0 1 .2 1.7.4 2.2.3.4.7.7 1 .7.5 0 .8-.2 1-.7.3-.4.5-1 .5-2s-.2-1.6-.4-2c-.3-.5-.6-.7-1-.7-.5 0-.8.2-1 .6-.3.5-.5 1.1-.5 2zM193.8 163.6l-1.5-.4c.2-.8.5-1.4.9-1.8.4-.4 1-.6 1.9-.6.7 0 1.3.1 1.7.4.4.2.6.5.8.9l.2 2V168.4l.4 1.2h-1.7a10.4 10.4 0 01-.2-1c-.3.4-.6.7-1 .9-.3.2-.7.3-1 .3-.7 0-1.2-.3-1.6-.7-.4-.5-.6-1.1-.6-1.9 0-.5.1-.9.3-1.3l.7-.8 1.4-.6c.8-.2 1.3-.3 1.6-.5v-.2c0-.5 0-.8-.2-1-.2-.2-.5-.3-1-.3a1 1 0 00-.6.3c-.2.1-.4.4-.5.8zm2.3 1.9l-1 .3-1 .4a1 1 0 00-.3.8c0 .3.1.6.3.8.2.3.4.4.7.4.3 0 .6-.2.8-.4.3-.2.4-.5.5-.8v-1zM201.1 169.6h-1.7V161h1.6v1.2c.3-.6.5-1 .7-1.1.2-.2.5-.3.8-.3.3 0 .7.1 1 .4l-.5 2c-.2-.2-.5-.4-.8-.4l-.6.3a2 2 0 00-.3 1l-.2 2.8z"/><path d="M207.3 161v1.8H206v4.7l.2.3h.3l.6-.1.2 1.7c-.4.3-.9.4-1.4.4l-.8-.2-.5-.6-.3-.9V162.8h-.8V161h.8v-1.7l1.7-1.3v3zM208.4 159.8v-2h1.8v2zm0 9.8V161h1.8v8.6zM217.8 169.6h-1.6v-1.3a3 3 0 01-1 1.1 2 2 0 01-1 .4c-.7 0-1.4-.4-1.9-1.2a6 6 0 01-.8-3.3 6 6 0 01.8-3.4c.5-.7 1.1-1 2-1 .6 0 1.3.3 1.8 1.1v-4.3h1.7zm-4.6-4.5c0 1 .1 1.6.3 2 .3.6.7.9 1.2.9.4 0 .7-.2 1-.7.3-.4.4-1.1.4-2 0-1-.1-1.7-.4-2.1-.3-.4-.6-.7-1-.7s-.8.3-1 .7c-.3.4-.5 1-.5 1.9zM219 165.2c0-.8.2-1.5.5-2.2.3-.7.7-1.3 1.2-1.6.5-.4 1-.6 1.7-.6 1 0 1.8.4 2.4 1.3.6.8 1 1.9 1 3.2 0 1.3-.4 2.3-1 3.2-.6.8-1.4 1.3-2.4 1.3a3 3 0 01-1.7-.6c-.5-.3-1-.8-1.2-1.5-.3-.7-.4-1.5-.4-2.5zm1.8 0c0 1 .2 1.6.5 2 .3.5.7.7 1.1.7.5 0 .8-.2 1.1-.7.3-.4.5-1 .5-2 0-.8-.2-1.4-.5-1.9-.3-.4-.6-.6-1-.6-.5 0-1 .2-1.2.6-.3.5-.5 1.1-.5 2zM230.5 161h1.5v1.3c.3-.5.5-.8.9-1 .3-.4.7-.5 1.2-.5.7 0 1.3.4 1.9 1.2.5.8.7 1.8.7 3.2a6 6 0 01-.7 3.4c-.6.8-1.2 1.2-2 1.2l-1-.3-.8-1v4.3h-1.7zm1.6 4.1c0 1 .2 1.7.5 2.2.3.4.6.7 1 .7s.8-.2 1-.7c.3-.4.4-1 .4-2s-.1-1.6-.4-2c-.3-.5-.6-.7-1-.7s-.8.2-1 .6c-.3.5-.5 1.1-.5 2zM237.7 165.2c0-.8.1-1.5.4-2.2.3-.7.7-1.3 1.2-1.6.5-.4 1-.6 1.7-.6 1 0 1.8.4 2.4 1.3.6.8 1 1.9 1 3.2 0 1.3-.4 2.3-1 3.2-.6.8-1.4 1.3-2.4 1.3a3 3 0 01-1.7-.6c-.5-.3-.9-.8-1.2-1.5-.3-.7-.4-1.5-.4-2.5zm1.7 0c0 1 .2 1.6.5 2 .3.5.7.7 1.1.7.5 0 .8-.2 1.1-.7.3-.4.5-1 .5-2 0-.8-.2-1.4-.5-1.9-.3-.4-.6-.6-1-.6-.5 0-.9.2-1.2.6-.3.5-.5 1.1-.5 2zM245.7 169.6v-11.9h1.7v11.9zM249.1 169.6V161h1.7v8.6zm0-9.6l.7-2.5h2L250 160zM255.5 161v1.8h-1.1v4.7l.1.3h.3l.7-.1.2 1.7c-.4.3-.9.4-1.4.4l-.8-.2-.6-.6-.2-.9V162.8h-.8V161h.8v-1.7l1.7-1.3v3zM256.7 159.8v-2h1.7v2zm0 9.8V161h1.7v8.6zM265.8 163.5l-1.7.4c0-.4-.2-.7-.4-1a1 1 0 00-.8-.3c-.4 0-.7.2-1 .6-.2.4-.4 1-.4 2s.2 1.7.4 2c.3.5.6.7 1 .7s.6-.1.8-.3c.3-.3.4-.7.5-1.3l1.7.4c-.2 1-.5 1.8-1 2.3-.5.5-1.2.8-2 .8-1 0-1.7-.4-2.3-1.2-.5-.8-.8-1.9-.8-3.3s.3-2.5.8-3.3c.6-.8 1.3-1.2 2.3-1.2.8 0 1.4.2 1.9.7a4 4 0 011 2zM266.7 165.2c0-.8.1-1.5.4-2.2.3-.7.7-1.3 1.2-1.6.5-.4 1-.6 1.7-.6 1 0 1.8.4 2.4 1.3.6.8 1 1.9 1 3.2 0 1.3-.4 2.3-1 3.2-.7.8-1.4 1.3-2.4 1.3a3 3 0 01-1.7-.6c-.5-.3-1-.8-1.2-1.5-.3-.7-.4-1.5-.4-2.5zm1.7 0c0 1 .2 1.6.5 2 .3.5.7.7 1.1.7.4 0 .8-.2 1.1-.7.3-.4.5-1 .5-2 0-.8-.2-1.4-.5-1.9-.3-.4-.7-.6-1.1-.6-.4 0-.8.2-1.1.6-.3.5-.5 1.1-.5 2z"/></g></svg>