<?xml version="1.0" encoding="UTF-8" standalone="no"?>
<!-- Created with Inkscape (http://www.inkscape.org/) -->

<svg
   xmlns:dc="http://purl.org/dc/elements/1.1/"
   xmlns:cc="http://creativecommons.org/ns#"
   xmlns:rdf="http://www.w3.org/1999/02/22-rdf-syntax-ns#"
   xmlns:svg="http://www.w3.org/2000/svg"
   xmlns="http://www.w3.org/2000/svg"
   xmlns:sodipodi="http://sodipodi.sourceforge.net/DTD/sodipodi-0.dtd"
   xmlns:inkscape="http://www.inkscape.org/namespaces/inkscape"
   id="svg3395"
   version="1.1"
   inkscape:version="0.48.1 "
   width="300"
   height="194"
   sodipodi:docname="logo.gif">
  <metadata
     id="metadata3401">
    <rdf:RDF>
      <cc:Work
         rdf:about="">
        <dc:format>image/svg+xml</dc:format>
        <dc:type
           rdf:resource="http://purl.org/dc/dcmitype/StillImage" />
        <dc:title></dc:title>
      </cc:Work>
    </rdf:RDF>
  </metadata>
  <defs
     id="defs3399" />
  <sodipodi:namedview
     pagecolor="#ffffff"
     bordercolor="#666666"
     borderopacity="1"
     objecttolerance="10"
     gridtolerance="10"
     guidetolerance="10"
     inkscape:pageopacity="0"
     inkscape:pageshadow="2"
     inkscape:window-width="1280"
     inkscape:window-height="750"
     id="namedview3397"
     showgrid="false"
     inkscape:zoom="0.50663836"
     inkscape:cx="224.73955"
     inkscape:cy="100.03244"
     inkscape:window-x="-8"
     inkscape:window-y="-8"
     inkscape:window-maximized="1"
     inkscape:current-layer="svg3395" />
  <rect
     style="fill:#4bbced;fill-opacity:1;stroke:none;stroke-opacity:1"
     id="rect3405"
     width="302.16547"
     height="196.79137"
     x="0"
     y="-0.6978417"
     ry="0.019989247" />
  <g
     transform="scale(1.1514721,0.86845353)"
     style="font-size:173.43540955000000000px;font-style:normal;font-variant:normal;font-weight:bold;font-stretch:normal;line-height:125%;letter-spacing:0px;word-spacing:0px;fill:none;stroke:#000000;stroke-width:1;stroke-miterlimit:4;stroke-opacity:1;font-family:Arial;-inkscape-font-specification:Arial Bold;stroke-dasharray:none"
     id="text4175">
    <path
       d="m 28.448666,163.54898 0,-128.754482 44.463199,0 15.57865,78.927892 17.929955,-78.927892 43.67943,0 0,128.754482 -27.63071,0 0,-97.726794 -22.03805,97.726794 -24.135303,0 -21.084911,-97.726794 0,97.726794 z"
       style="stroke:none;stroke-width:1;stroke-miterlimit:4;stroke-dasharray:none;fill:#ffffff"
       id="path4184"
       inkscape:connector-curvature="0"
       sodipodi:nodetypes="cccccccccccccc" />
    <path
       d="m 201.4591,35.94597 28.76328,0 0,78.58792 c -8e-5,10.27518 -0.20888,18.17913 -1.91204,23.71187 -7.02007,37.96744 -76.00326,39.37629 -73.16862,-17.65001 l 27.39481,0.98332 c 0.41502,19.68253 11.45839,17.35091 14.28502,15.17124 3.78533,-2.91894 4.41914,-12.32028 4.63755,-20.6074 z"
       style="stroke:none;stroke-width:1;stroke-miterlimit:4;stroke-dasharray:none;fill:#ffffff"
       id="path4186"
       inkscape:connector-curvature="0"
       sodipodi:nodetypes="ccccccscc" />
  </g>
  <path
     style="fill:#ffffff;stroke:none"
     d="m 196.625,53.625 0,13.90625 -15.625,0 -0.0312,0.03125 0,11.8125 0.0312,0 15.625,0 0,13.4375 0.0312,0.03125 12.3125,0 0,-0.03125 0,-13.4375 15.40625,0 0.0312,0 0,-11.8125 -0.0312,-0.03125 -15.40625,0 0,-13.90625 -12.3125,0 z"
     id="rect4188"
     inkscape:connector-curvature="0"
     sodipodi:nodetypes="cccccccccccccccccccc" />
  <g
     transform="scale(0.86642479,1.1541683)"
     style="font-size:14.32668018px;font-style:normal;font-variant:normal;font-weight:bold;font-stretch:normal;line-height:125%;letter-spacing:0px;word-spacing:0px;fill:#ffffff;fill-opacity:1;stroke:none;font-family:Arial;-inkscape-font-specification:Sans Bold"
     id="text4193">
    <path
       d="m 34.54503,139.49512 1.832808,0 0,1.09129 c 0.237842,-0.37309 0.559632,-0.67622 0.965372,-0.90941 0.405731,-0.23317 0.855772,-0.34976 1.350121,-0.34977 0.862766,1e-5 1.594956,0.33812 2.196571,1.01434 0.601601,0.67623 0.902405,1.61828 0.902413,2.82616 -8e-6,1.24053 -0.303144,2.20473 -0.909408,2.89262 -0.606279,0.68788 -1.340801,1.03183 -2.203567,1.03183 -0.410404,0 -0.782328,-0.0816 -1.115774,-0.24484 -0.333453,-0.16323 -0.684391,-0.44305 -1.052815,-0.83946 l 0,3.74257 -1.965721,0 z m 1.944735,3.58866 c -3e-6,0.8348 0.165556,1.45156 0.496677,1.8503 0.331114,0.39874 0.734518,0.59811 1.210212,0.59811 0.457031,0 0.837117,-0.18304 1.140259,-0.54914 0.30313,-0.36609 0.454698,-0.96654 0.454704,-1.80133 -6e-6,-0.77882 -0.156238,-1.35711 -0.468695,-1.73487 -0.312469,-0.37775 -0.69955,-0.56663 -1.161245,-0.56663 -0.480358,0 -0.879098,0.18538 -1.196222,0.55614 -0.31713,0.37076 -0.475693,0.9199 -0.47569,1.64742 z"
       style=""
       id="path4224" />
    <path
       d="m 42.904592,143.10477 c -10e-7,-0.6529 0.160894,-1.28483 0.482686,-1.89577 0.321789,-0.61093 0.777659,-1.07729 1.36761,-1.39909 0.589947,-0.32178 1.248684,-0.48267 1.976215,-0.48268 1.12393,1e-5 2.044996,0.36493 2.763202,1.09479 0.718192,0.72986 1.077291,1.65209 1.077299,2.7667 -8e-6,1.12393 -0.362605,2.05549 -1.087792,2.79468 -0.725201,0.73918 -1.638107,1.10878 -2.738718,1.10878 -0.680895,0 -1.330305,-0.1539 -1.948233,-0.4617 -0.617933,-0.3078 -1.087794,-0.75901 -1.409583,-1.35362 -0.321792,-0.59461 -0.482687,-1.31864 -0.482686,-2.17209 z m 2.014689,0.10493 c -2e-6,0.73686 0.174884,1.30116 0.524659,1.6929 0.349769,0.39175 0.781155,0.58762 1.294158,0.58762 0.512995,0 0.943215,-0.19587 1.290661,-0.58762 0.347434,-0.39174 0.521154,-0.9607 0.52116,-1.70689 -6e-6,-0.72752 -0.173726,-1.28716 -0.52116,-1.67891 -0.347446,-0.39174 -0.777666,-0.58761 -1.290661,-0.58761 -0.513003,0 -0.944389,0.19587 -1.294158,0.58761 -0.349775,0.39175 -0.524661,0.95605 -0.524659,1.6929 z"
       style=""
       id="path4226" />
    <path
       d="m 53.999375,146.92429 -1.965722,0 0,-7.42917 1.825813,0 0,1.05631 c 0.31246,-0.499 0.593444,-0.82779 0.842951,-0.98636 0.249501,-0.15855 0.532816,-0.23783 0.849947,-0.23784 0.447704,1e-5 0.87909,0.12359 1.294159,0.37076 l -0.608605,1.71388 c -0.331122,-0.21452 -0.638922,-0.32178 -0.923399,-0.32179 -0.275158,1e-5 -0.50834,0.0758 -0.699545,0.22735 -0.191212,0.15158 -0.341614,0.42556 -0.451206,0.82197 -0.109599,0.39641 -0.164396,1.22654 -0.164393,2.49038 z"
       style=""
       id="path4228" />
    <path
       d="m 66.54921,146.92429 0,-1.11228 c -0.270497,0.39641 -0.626098,0.70887 -1.066806,0.93739 -0.440718,0.22852 -0.905915,0.34278 -1.395592,0.34278 -0.499012,0 -0.94672,-0.1096 -1.343127,-0.32879 -0.39641,-0.21919 -0.683223,-0.52699 -0.86044,-0.9234 -0.177219,-0.39641 -0.265828,-0.94438 -0.265827,-1.64393 l 0,-4.70094 1.965721,0 0,3.41378 c -3e-6,1.04465 0.03614,1.68474 0.10843,1.92025 0.07228,0.23551 0.20403,0.42206 0.395243,0.55963 0.191205,0.13758 0.433714,0.20637 0.727526,0.20637 0.335777,0 0.636581,-0.0921 0.902413,-0.27632 0.265822,-0.18421 0.447704,-0.41273 0.545645,-0.68555 0.09793,-0.27282 0.146899,-0.94089 0.146905,-2.0042 l 0,-3.13396 1.965721,0 0,7.42917 z"
       style=""
       id="path4230" />
    <path
       d="m 77.175297,146.92429 -1.965721,0 0,-3.79154 c -6e-6,-0.80214 -0.04198,-1.32097 -0.125918,-1.55649 -0.08395,-0.2355 -0.220362,-0.41855 -0.409234,-0.54914 -0.188882,-0.13057 -0.416234,-0.19586 -0.682056,-0.19587 -0.340449,10e-6 -0.645917,0.0933 -0.916404,0.27982 -0.270494,0.18655 -0.455873,0.43372 -0.556138,0.74152 -0.100271,0.3078 -0.150405,0.87676 -0.150402,1.70688 l 0,3.36482 -1.965722,0 0,-7.42917 1.825813,0 0,1.09129 c 0.648241,-0.83945 1.464376,-1.25917 2.448407,-1.25918 0.433712,1e-5 0.830121,0.0781 1.189226,0.23435 0.359093,0.15623 0.63075,0.3556 0.81497,0.59811 0.184206,0.24251 0.312456,0.51767 0.38475,0.82546 0.07228,0.3078 0.108422,0.74852 0.108429,1.32214 z"
       style=""
       id="path4232" />
    <path
       d="m 83.002509,139.49512 1.811821,0 0,1.01434 c 0.648242,-0.78815 1.420072,-1.18222 2.315494,-1.18223 0.475685,1e-5 0.888416,0.0979 1.238195,0.29381 0.349765,0.19588 0.636579,0.49202 0.86044,0.88842 0.326447,-0.3964 0.678551,-0.69254 1.056313,-0.88842 0.377745,-0.19587 0.781149,-0.2938 1.210212,-0.29381 0.545636,1e-5 1.007335,0.11077 1.385099,0.33228 0.377743,0.22153 0.659893,0.54682 0.84645,0.97587 0.135233,0.31713 0.202856,0.83013 0.202868,1.539 l 0,4.74991 -1.965722,0 0,-4.24624 c -9e-6,-0.73685 -0.06763,-1.21254 -0.202868,-1.42707 -0.181891,-0.27982 -0.461708,-0.41972 -0.839453,-0.41973 -0.275163,10e-6 -0.533995,0.0839 -0.776495,0.25184 -0.242517,0.16789 -0.417403,0.4139 -0.524659,0.73802 -0.107271,0.32412 -0.160903,0.83596 -0.160895,1.5355 l 0,3.56768 -1.965722,0 0,-4.07136 c -5e-6,-0.72285 -0.03498,-1.18922 -0.104931,-1.39909 -0.06996,-0.20985 -0.178389,-0.36608 -0.325289,-0.46869 -0.146909,-0.10259 -0.346279,-0.15389 -0.598111,-0.1539 -0.30314,10e-6 -0.575962,0.0816 -0.818467,0.24484 -0.242512,0.16323 -0.416233,0.39875 -0.521161,0.70654 -0.104935,0.30781 -0.157401,0.81847 -0.157398,1.532 l 0,3.60966 -1.965721,0 z"
       style=""
       id="path4234" />
    <path
       d="m 100.77095,146.92429 0,-1.11228 c -0.2705,0.39641 -0.6261,0.70887 -1.066807,0.93739 -0.440718,0.22852 -0.905915,0.34278 -1.395593,0.34278 -0.499011,0 -0.94672,-0.1096 -1.343126,-0.32879 -0.39641,-0.21919 -0.683223,-0.52699 -0.86044,-0.9234 -0.177219,-0.39641 -0.265828,-0.94438 -0.265827,-1.64393 l 0,-4.70094 1.965721,0 0,3.41378 c -3e-6,1.04465 0.03614,1.68474 0.10843,1.92025 0.07228,0.23551 0.20403,0.42206 0.395242,0.55963 0.191206,0.13758 0.433714,0.20637 0.727527,0.20637 0.335777,0 0.636581,-0.0921 0.902413,-0.27632 0.26582,-0.18421 0.4477,-0.41273 0.54565,-0.68555 0.0979,-0.27282 0.14689,-0.94089 0.1469,-2.0042 l 0,-3.13396 1.96572,0 0,7.42917 z"
       style=""
       id="path4236" />
    <path
       d="m 111.39703,146.92429 -1.96572,0 0,-3.79154 c 0,-0.80214 -0.042,-1.32097 -0.12592,-1.55649 -0.084,-0.2355 -0.22036,-0.41855 -0.40923,-0.54914 -0.18888,-0.13057 -0.41623,-0.19586 -0.68206,-0.19587 -0.34044,10e-6 -0.64591,0.0933 -0.9164,0.27982 -0.27049,0.18655 -0.45587,0.43372 -0.55614,0.74152 -0.10027,0.3078 -0.1504,0.87676 -0.1504,1.70688 l 0,3.36482 -1.96572,0 0,-7.42917 1.82581,0 0,1.09129 c 0.64824,-0.83945 1.46438,-1.25917 2.44841,-1.25918 0.43371,1e-5 0.83012,0.0781 1.18923,0.23435 0.35909,0.15623 0.63074,0.3556 0.81497,0.59811 0.1842,0.24251 0.31245,0.51767 0.38474,0.82546 0.0723,0.3078 0.10843,0.74852 0.10843,1.32214 z"
       style=""
       id="path4238" />
    <path
       d="m 120.21131,146.92429 -1.82582,0 0,-1.09129 c -0.30314,0.42439 -0.66107,0.74035 -1.0738,0.94788 -0.41273,0.20753 -0.82896,0.3113 -1.24869,0.3113 -0.85344,0 -1.58447,-0.34395 -2.19307,-1.03183 -0.6086,-0.68789 -0.91291,-1.64743 -0.9129,-2.87863 -1e-5,-1.25918 0.29614,-2.21639 0.88842,-2.87163 0.59228,-0.65523 1.34079,-0.98285 2.24554,-0.98286 0.83012,1e-5 1.54832,0.34511 2.1546,1.03532 l 0,-3.69359 1.96572,0 z m -5.24659,-3.87548 c 0,0.79282 0.10959,1.36644 0.32879,1.72088 0.31712,0.513 0.76016,0.7695 1.32913,0.7695 0.45237,0 0.83712,-0.19238 1.15425,-0.57713 0.31712,-0.38475 0.47568,-0.95954 0.47569,-1.72438 -10e-6,-0.85344 -0.15391,-1.46787 -0.4617,-1.8433 -0.3078,-0.37541 -0.70188,-0.56312 -1.18223,-0.56313 -0.46637,10e-6 -0.85695,0.18538 -1.17174,0.55614 -0.3148,0.37076 -0.47219,0.92457 -0.47219,1.66142 z"
       style=""
       id="path4240" />
    <path
       d="m 121.70134,143.10477 c -1e-5,-0.6529 0.16089,-1.28483 0.48268,-1.89577 0.32179,-0.61093 0.77766,-1.07729 1.36761,-1.39909 0.58995,-0.32178 1.24869,-0.48267 1.97622,-0.48268 1.12393,1e-5 2.04499,0.36493 2.7632,1.09479 0.71819,0.72986 1.07729,1.65209 1.0773,2.7667 -1e-5,1.12393 -0.36261,2.05549 -1.08779,2.79468 -0.72521,0.73918 -1.63811,1.10878 -2.73872,1.10878 -0.6809,0 -1.33031,-0.1539 -1.94824,-0.4617 -0.61793,-0.3078 -1.08779,-0.75901 -1.40958,-1.35362 -0.32179,-0.59461 -0.48269,-1.31864 -0.48268,-2.17209 z m 2.01468,0.10493 c 0,0.73686 0.17489,1.30116 0.52466,1.6929 0.34977,0.39175 0.78116,0.58762 1.29416,0.58762 0.513,0 0.94322,-0.19587 1.29066,-0.58762 0.34744,-0.39174 0.52116,-0.9607 0.52116,-1.70689 0,-0.72752 -0.17372,-1.28716 -0.52116,-1.67891 -0.34744,-0.39174 -0.77766,-0.58761 -1.29066,-0.58761 -0.513,0 -0.94439,0.19587 -1.29416,0.58761 -0.34977,0.39175 -0.52466,0.95605 -0.52466,1.6929 z"
       style=""
       id="path4242" />
    <path
       d="m 134.74086,139.49512 1.81182,0 0,1.01434 c 0.64824,-0.78815 1.42007,-1.18222 2.31549,-1.18223 0.47569,1e-5 0.88842,0.0979 1.23819,0.29381 0.34977,0.19588 0.63658,0.49202 0.86044,0.88842 0.32645,-0.3964 0.67856,-0.69254 1.05632,-0.88842 0.37774,-0.19587 0.78115,-0.2938 1.21021,-0.29381 0.54564,1e-5 1.00733,0.11077 1.3851,0.33228 0.37774,0.22153 0.65989,0.54682 0.84645,0.97587 0.13523,0.31713 0.20286,0.83013 0.20287,1.539 l 0,4.74991 -1.96572,0 0,-4.24624 c -1e-5,-0.73685 -0.0676,-1.21254 -0.20287,-1.42707 -0.18189,-0.27982 -0.46171,-0.41972 -0.83946,-0.41973 -0.27516,10e-6 -0.53399,0.0839 -0.77649,0.25184 -0.24252,0.16789 -0.4174,0.4139 -0.52466,0.73802 -0.10727,0.32412 -0.1609,0.83596 -0.1609,1.5355 l 0,3.56768 -1.96572,0 0,-4.07136 c 0,-0.72285 -0.035,-1.18922 -0.10493,-1.39909 -0.07,-0.20985 -0.17839,-0.36608 -0.32529,-0.46869 -0.14691,-0.10259 -0.34628,-0.15389 -0.59811,-0.1539 -0.30314,10e-6 -0.57596,0.0816 -0.81847,0.24484 -0.24251,0.16323 -0.41623,0.39875 -0.52116,0.70654 -0.10493,0.30781 -0.1574,0.81847 -0.15739,1.532 l 0,3.60966 -1.96572,0 z"
       style=""
       id="path4244" />
    <path
       d="m 149.08852,141.76164 -1.78384,-0.32179 c 0.20053,-0.71819 0.54564,-1.24984 1.03532,-1.59496 0.48968,-0.3451 1.21721,-0.51765 2.18258,-0.51766 0.87676,1e-5 1.52967,0.10377 1.95873,0.3113 0.42905,0.20753 0.73102,0.47103 0.90591,0.79048 0.17488,0.31947 0.26232,0.90592 0.26233,1.75936 l -0.021,2.2945 c 0,0.65291 0.0315,1.13443 0.0944,1.44456 0.063,0.31014 0.18071,0.64242 0.35327,0.99686 l -1.94473,0 c -0.0513,-0.13059 -0.11427,-0.32413 -0.18888,-0.58063 -0.0326,-0.11659 -0.056,-0.19354 -0.07,-0.23085 -0.33578,0.32646 -0.69488,0.5713 -1.07729,0.73453 -0.38243,0.16322 -0.79049,0.24484 -1.22421,0.24484 -0.76484,0 -1.36761,-0.20753 -1.80832,-0.6226 -0.44072,-0.41506 -0.66107,-0.93972 -0.66107,-1.57397 0,-0.41973 0.10027,-0.79399 0.3008,-1.12277 0.20054,-0.32879 0.48152,-0.58062 0.84295,-0.75551 0.36143,-0.17488 0.88259,-0.32762 1.56349,-0.4582 0.91873,-0.17255 1.55531,-0.33345 1.90976,-0.48269 l 0,-0.19587 c -1e-5,-0.37775 -0.0933,-0.64708 -0.27982,-0.80798 -0.18655,-0.16089 -0.53866,-0.24133 -1.05632,-0.24134 -0.34977,10e-6 -0.62259,0.0688 -0.81846,0.20637 -0.19588,0.13758 -0.35444,0.37892 -0.47569,0.72402 z m 2.63029,1.59497 c -0.25185,0.084 -0.65059,0.18421 -1.19623,0.3008 -0.54565,0.1166 -0.90241,0.23085 -1.0703,0.34278 -0.2565,0.18188 -0.38475,0.41273 -0.38475,0.69255 0,0.27515 0.1026,0.513 0.3078,0.71353 0.2052,0.20054 0.46636,0.30081 0.78349,0.30081 0.35443,0 0.69255,-0.11659 1.01434,-0.34977 0.23784,-0.17722 0.39407,-0.39408 0.4687,-0.65058 0.0513,-0.16789 0.0769,-0.48735 0.0769,-0.95838 z m -2.11263,-4.7709 0.96537,-2.09164 2.20357,0 -1.92375,2.09164 z"
       style=""
       id="path4246" />
    <path
       d="m 154.90174,144.80466 1.97271,-0.3008 c 0.084,0.38242 0.25417,0.67273 0.51067,0.87093 0.2565,0.19821 0.6156,0.29731 1.0773,0.29731 0.50833,0 0.89075,-0.0933 1.14726,-0.27982 0.17254,-0.13058 0.25882,-0.30546 0.25883,-0.52466 -10e-6,-0.14923 -0.0466,-0.27282 -0.13991,-0.37076 -0.0979,-0.0933 -0.31713,-0.17954 -0.65757,-0.25883 -1.58564,-0.34977 -2.59065,-0.66922 -3.01504,-0.95837 -0.58762,-0.40107 -0.88143,-0.95838 -0.88143,-1.67192 0,-0.64357 0.25417,-1.18455 0.7625,-1.62294 0.50834,-0.43837 1.29649,-0.65756 2.36447,-0.65757 1.01666,1e-5 1.77217,0.16556 2.26652,0.49667 0.49434,0.33113 0.83479,0.82081 1.02134,1.46905 l -1.8538,0.34278 c -0.0793,-0.28914 -0.22969,-0.51067 -0.4512,-0.66457 -0.22153,-0.1539 -0.53749,-0.23085 -0.94789,-0.23085 -0.51766,0 -0.88842,0.0723 -1.11227,0.21686 -0.14924,0.1026 -0.22386,0.23552 -0.22386,0.39874 0,0.13991 0.0653,0.25884 0.19588,0.35677 0.17721,0.13058 0.78931,0.3148 1.8363,0.55264 1.04698,0.23785 1.778,0.52932 2.19307,0.87443 0.4104,0.34977 0.6156,0.83712 0.6156,1.46205 0,0.68089 -0.28449,1.26617 -0.85344,1.75585 -0.56897,0.48969 -1.41076,0.73453 -2.52536,0.73453 -1.01201,0 -1.81299,-0.2052 -2.40294,-0.6156 -0.58995,-0.4104 -0.97586,-0.96771 -1.15774,-1.67192 z"
       style=""
       id="path4248" />
    <path
       d="m 167.50053,138.48777 0,-1.81881 1.96573,0 0,1.81881 z m 1.96573,1.00735 0,7.19832 c -1e-5,0.94671 -0.0618,1.61478 -0.18538,2.00419 -0.12359,0.38941 -0.36144,0.69372 -0.71354,0.91291 -0.35211,0.21919 -0.80098,0.32878 -1.34662,0.32878 -0.19588,0 -0.40691,-0.0175 -0.63309,-0.0525 -0.22619,-0.035 -0.46986,-0.0875 -0.73103,-0.1574 l 0.34278,-1.67891 c 0.0933,0.0187 0.18072,0.0338 0.26233,0.0455 0.0816,0.0117 0.1574,0.0175 0.22735,0.0175 0.20054,0 0.36493,-0.0431 0.49318,-0.12941 0.12825,-0.0863 0.21336,-0.19005 0.25533,-0.3113 0.042,-0.12126 0.063,-0.48502 0.063,-1.09129 l 0,-7.08639 z"
       style=""
       id="path4250" />
    <path
       d="m 176.40574,146.92429 0,-1.11228 c -0.27049,0.39641 -0.62609,0.70887 -1.0668,0.93739 -0.44072,0.22852 -0.90592,0.34278 -1.39559,0.34278 -0.49902,0 -0.94672,-0.1096 -1.34313,-0.32879 -0.39641,-0.21919 -0.68322,-0.52699 -0.86044,-0.9234 -0.17722,-0.39641 -0.26583,-0.94438 -0.26583,-1.64393 l 0,-4.70094 1.96572,0 0,3.41378 c 0,1.04465 0.0361,1.68474 0.10843,1.92025 0.0723,0.23551 0.20403,0.42206 0.39525,0.55963 0.1912,0.13758 0.43371,0.20637 0.72752,0.20637 0.33578,0 0.63658,-0.0921 0.90242,-0.27632 0.26582,-0.18421 0.4477,-0.41273 0.54564,-0.68555 0.0979,-0.27282 0.1469,-0.94089 0.14691,-2.0042 l 0,-3.13396 1.96572,0 0,7.42917 z"
       style=""
       id="path4252" />
    <path
       d="m 179.58168,144.80466 1.97271,-0.3008 c 0.0839,0.38242 0.25417,0.67273 0.51067,0.87093 0.2565,0.19821 0.6156,0.29731 1.0773,0.29731 0.50833,0 0.89075,-0.0933 1.14725,-0.27982 0.17255,-0.13058 0.25883,-0.30546 0.25884,-0.52466 -1e-5,-0.14923 -0.0466,-0.27282 -0.13991,-0.37076 -0.0979,-0.0933 -0.31713,-0.17954 -0.65758,-0.25883 -1.58563,-0.34977 -2.59065,-0.66922 -3.01503,-0.95837 -0.58762,-0.40107 -0.88143,-0.95838 -0.88143,-1.67192 0,-0.64357 0.25417,-1.18455 0.7625,-1.62294 0.50834,-0.43837 1.29649,-0.65756 2.36447,-0.65757 1.01666,1e-5 1.77217,0.16556 2.26652,0.49667 0.49434,0.33113 0.83478,0.82081 1.02134,1.46905 l -1.8538,0.34278 c -0.0793,-0.28914 -0.22969,-0.51067 -0.4512,-0.66457 -0.22153,-0.1539 -0.53749,-0.23085 -0.94789,-0.23085 -0.51766,0 -0.88842,0.0723 -1.11227,0.21686 -0.14924,0.1026 -0.22386,0.23552 -0.22386,0.39874 0,0.13991 0.0653,0.25884 0.19587,0.35677 0.17722,0.13058 0.78932,0.3148 1.83631,0.55264 1.04698,0.23785 1.778,0.52932 2.19307,0.87443 0.4104,0.34977 0.6156,0.83712 0.6156,1.46205 0,0.68089 -0.28449,1.26617 -0.85344,1.75585 -0.56897,0.48969 -1.41076,0.73453 -2.52536,0.73453 -1.01201,0 -1.81299,-0.2052 -2.40294,-0.6156 -0.58995,-0.4104 -0.97586,-0.96771 -1.15774,-1.67192 z"
       style=""
       id="path4254" />
    <path
       d="m 191.65583,139.49512 0,1.56698 -1.34312,0 0,2.99405 c -1e-5,0.60628 0.0128,0.95955 0.0385,1.05981 0.0257,0.10027 0.0839,0.18305 0.17489,0.24834 0.0909,0.0653 0.2017,0.0979 0.33228,0.0979 0.18188,0 0.44537,-0.063 0.79049,-0.18888 l 0.16789,1.52501 c -0.45704,0.19587 -0.9747,0.29381 -1.55299,0.29381 -0.35444,0 -0.6739,-0.0595 -0.95838,-0.17839 -0.28448,-0.11892 -0.49318,-0.27282 -0.62609,-0.4617 -0.13292,-0.18887 -0.22502,-0.44421 -0.27632,-0.766 -0.042,-0.22852 -0.063,-0.69021 -0.063,-1.3851 l 0,-3.23889 -0.90241,0 0,-1.56698 0.90241,0 0,-1.47604 1.97272,-1.14725 0,2.62329 z"
       style=""
       id="path4256" />
    <path
       d="m 192.57923,143.10477 c 0,-0.6529 0.16089,-1.28483 0.48268,-1.89577 0.32179,-0.61093 0.77766,-1.07729 1.36761,-1.39909 0.58995,-0.32178 1.24869,-0.48267 1.97622,-0.48268 1.12393,1e-5 2.04499,0.36493 2.7632,1.09479 0.71819,0.72986 1.07729,1.65209 1.0773,2.7667 -1e-5,1.12393 -0.36261,2.05549 -1.08779,2.79468 -0.7252,0.73918 -1.63811,1.10878 -2.73872,1.10878 -0.6809,0 -1.33031,-0.1539 -1.94823,-0.4617 -0.61794,-0.3078 -1.0878,-0.75901 -1.40959,-1.35362 -0.32179,-0.59461 -0.48268,-1.31864 -0.48268,-2.17209 z m 2.01469,0.10493 c -1e-5,0.73686 0.17488,1.30116 0.52465,1.6929 0.34977,0.39175 0.78116,0.58762 1.29416,0.58762 0.513,0 0.94322,-0.19587 1.29066,-0.58762 0.34744,-0.39174 0.52116,-0.9607 0.52116,-1.70689 0,-0.72752 -0.17372,-1.28716 -0.52116,-1.67891 -0.34744,-0.39174 -0.77766,-0.58761 -1.29066,-0.58761 -0.513,0 -0.94439,0.19587 -1.29416,0.58761 -0.34977,0.39175 -0.52466,0.95605 -0.52465,1.6929 z"
       style=""
       id="path4258" />
  </g>
  <g
     transform="scale(0.86642477,1.1541683)"
     style="font-size:14.32668018px;font-style:normal;font-variant:normal;font-weight:bold;font-stretch:normal;line-height:125%;letter-spacing:0px;word-spacing:0px;fill:#000000;fill-opacity:1;stroke:none;font-family:Arial;-inkscape-font-specification:Sans Bold"
     id="text4197">
    <path
       d="m 213.44148,139.49512 1.83281,0 0,1.09129 c 0.23784,-0.37309 0.55963,-0.67622 0.96537,-0.90941 0.40574,-0.23317 0.85578,-0.34976 1.35013,-0.34977 0.86276,1e-5 1.59495,0.33812 2.19657,1.01434 0.6016,0.67623 0.9024,1.61828 0.90241,2.82616 -1e-5,1.24053 -0.30314,2.20473 -0.90941,2.89262 -0.60628,0.68788 -1.3408,1.03183 -2.20357,1.03183 -0.4104,0 -0.78232,-0.0816 -1.11577,-0.24484 -0.33345,-0.16323 -0.68439,-0.44305 -1.05282,-0.83946 l 0,3.74257 -1.96572,0 z m 1.94474,3.58866 c 0,0.8348 0.16555,1.45156 0.49668,1.8503 0.33111,0.39874 0.73451,0.59811 1.21021,0.59811 0.45703,0 0.83711,-0.18304 1.14026,-0.54914 0.30313,-0.36609 0.45469,-0.96654 0.4547,-1.80133 -1e-5,-0.77882 -0.15624,-1.35711 -0.46869,-1.73487 -0.31247,-0.37775 -0.69955,-0.56663 -1.16125,-0.56663 -0.48036,0 -0.8791,0.18538 -1.19622,0.55614 -0.31713,0.37076 -0.47569,0.9199 -0.47569,1.64742 z"
       style=""
       id="path4261" />
    <path
       d="m 223.72479,141.76164 -1.78384,-0.32179 c 0.20054,-0.71819 0.54565,-1.24984 1.03533,-1.59496 0.48968,-0.3451 1.21721,-0.51765 2.18258,-0.51766 0.87676,1e-5 1.52967,0.10377 1.95873,0.3113 0.42905,0.20753 0.73102,0.47103 0.90591,0.79048 0.17488,0.31947 0.26232,0.90592 0.26233,1.75936 l -0.021,2.2945 c -1e-5,0.65291 0.0315,1.13443 0.0944,1.44456 0.063,0.31014 0.18071,0.64242 0.35327,0.99686 l -1.94474,0 c -0.0513,-0.13059 -0.11426,-0.32413 -0.18887,-0.58063 -0.0326,-0.11659 -0.056,-0.19354 -0.07,-0.23085 -0.33578,0.32646 -0.69488,0.5713 -1.0773,0.73453 -0.38242,0.16322 -0.79049,0.24484 -1.2242,0.24484 -0.76484,0 -1.36761,-0.20753 -1.80832,-0.6226 -0.44072,-0.41506 -0.66107,-0.93972 -0.66107,-1.57397 0,-0.41973 0.10026,-0.79399 0.3008,-1.12277 0.20054,-0.32879 0.48152,-0.58062 0.84295,-0.75551 0.36143,-0.17488 0.88259,-0.32762 1.56349,-0.4582 0.91873,-0.17255 1.55531,-0.33345 1.90975,-0.48269 l 0,-0.19587 c 0,-0.37775 -0.0933,-0.64708 -0.27981,-0.80798 -0.18655,-0.16089 -0.53866,-0.24133 -1.05632,-0.24134 -0.34977,10e-6 -0.6226,0.0688 -0.81847,0.20637 -0.19587,0.13758 -0.35443,0.37892 -0.47569,0.72402 z m 2.63029,1.59497 c -0.25184,0.084 -0.65058,0.18421 -1.19622,0.3008 -0.54565,0.1166 -0.90241,0.23085 -1.0703,0.34278 -0.2565,0.18188 -0.38475,0.41273 -0.38475,0.69255 0,0.27515 0.1026,0.513 0.3078,0.71353 0.20519,0.20054 0.46636,0.30081 0.78349,0.30081 0.35443,0 0.69254,-0.11659 1.01434,-0.34977 0.23784,-0.17722 0.39407,-0.39408 0.46869,-0.65058 0.0513,-0.16789 0.0769,-0.48735 0.0769,-0.95838 z"
       style=""
       id="path4263" />
    <path
       d="m 232.11234,146.92429 -1.96572,0 0,-7.42917 1.82581,0 0,1.05631 c 0.31246,-0.499 0.59344,-0.82779 0.84295,-0.98636 0.2495,-0.15855 0.53282,-0.23783 0.84995,-0.23784 0.4477,1e-5 0.87909,0.12359 1.29416,0.37076 l -0.60861,1.71388 c -0.33112,-0.21452 -0.63892,-0.32178 -0.9234,-0.32179 -0.27516,1e-5 -0.50834,0.0758 -0.69954,0.22735 -0.19122,0.15158 -0.34162,0.42556 -0.45121,0.82197 -0.1096,0.39641 -0.1644,1.22654 -0.16439,2.49038 z"
       style=""
       id="path4265" />
    <path
       d="m 239.20572,139.49512 0,1.56698 -1.34312,0 0,2.99405 c -10e-6,0.60628 0.0128,0.95955 0.0385,1.05981 0.0256,0.10027 0.0839,0.18305 0.17489,0.24834 0.0909,0.0653 0.2017,0.0979 0.33228,0.0979 0.18188,0 0.44538,-0.063 0.79049,-0.18888 l 0.16789,1.52501 c -0.45704,0.19587 -0.9747,0.29381 -1.55299,0.29381 -0.35444,0 -0.6739,-0.0595 -0.95838,-0.17839 -0.28448,-0.11892 -0.49318,-0.27282 -0.62609,-0.4617 -0.13291,-0.18887 -0.22502,-0.44421 -0.27632,-0.766 -0.042,-0.22852 -0.063,-0.69021 -0.063,-1.3851 l 0,-3.23889 -0.90241,0 0,-1.56698 0.90241,0 0,-1.47604 1.97272,-1.14725 0,2.62329 z"
       style=""
       id="path4267" />
    <path
       d="m 240.58383,138.48777 0,-1.81881 1.96572,0 0,1.81881 z m 0,8.43652 0,-7.42917 1.96572,0 0,7.42917 z"
       style=""
       id="path4269" />
    <path
       d="m 251.37081,146.92429 -1.82581,0 0,-1.09129 c -0.30314,0.42439 -0.66108,0.74035 -1.0738,0.94788 -0.41274,0.20753 -0.82897,0.3113 -1.24869,0.3113 -0.85345,0 -1.58447,-0.34395 -2.19307,-1.03183 -0.60861,-0.68789 -0.91291,-1.64743 -0.91291,-2.87863 0,-1.25918 0.29614,-2.21639 0.88842,-2.87163 0.59228,-0.65523 1.34079,-0.98285 2.24554,-0.98286 0.83012,1e-5 1.54832,0.34511 2.1546,1.03532 l 0,-3.69359 1.96572,0 z m -5.24659,-3.87548 c 0,0.79282 0.1096,1.36644 0.32879,1.72088 0.31712,0.513 0.76017,0.7695 1.32913,0.7695 0.45237,0 0.83712,-0.19238 1.15425,-0.57713 0.31713,-0.38475 0.47569,-0.95954 0.47569,-1.72438 0,-0.85344 -0.1539,-1.46787 -0.4617,-1.8433 -0.3078,-0.37541 -0.70188,-0.56312 -1.18223,-0.56313 -0.46636,10e-6 -0.85694,0.18538 -1.17173,0.55614 -0.3148,0.37076 -0.4722,0.92457 -0.4722,1.66142 z"
       style=""
       id="path4271" />
    <path
       d="m 252.86084,143.10477 c 0,-0.6529 0.16089,-1.28483 0.48269,-1.89577 0.32178,-0.61093 0.77765,-1.07729 1.36761,-1.39909 0.58994,-0.32178 1.24868,-0.48267 1.97621,-0.48268 1.12393,1e-5 2.045,0.36493 2.7632,1.09479 0.71819,0.72986 1.07729,1.65209 1.0773,2.7667 -10e-6,1.12393 -0.3626,2.05549 -1.08779,2.79468 -0.7252,0.73918 -1.63811,1.10878 -2.73872,1.10878 -0.68089,0 -1.3303,-0.1539 -1.94823,-0.4617 -0.61793,-0.3078 -1.0878,-0.75901 -1.40958,-1.35362 -0.3218,-0.59461 -0.48269,-1.31864 -0.48269,-2.17209 z m 2.01469,0.10493 c 0,0.73686 0.17488,1.30116 0.52466,1.6929 0.34977,0.39175 0.78115,0.58762 1.29416,0.58762 0.51299,0 0.94321,-0.19587 1.29066,-0.58762 0.34743,-0.39174 0.52115,-0.9607 0.52116,-1.70689 -10e-6,-0.72752 -0.17373,-1.28716 -0.52116,-1.67891 -0.34745,-0.39174 -0.77767,-0.58761 -1.29066,-0.58761 -0.51301,0 -0.94439,0.19587 -1.29416,0.58761 -0.34978,0.39175 -0.52466,0.95605 -0.52466,1.6929 z"
       style=""
       id="path4273" />
    <path
       d="m 265.9913,139.49512 1.83281,0 0,1.09129 c 0.23784,-0.37309 0.55963,-0.67622 0.96537,-0.90941 0.40573,-0.23317 0.85577,-0.34976 1.35012,-0.34977 0.86277,1e-5 1.59496,0.33812 2.19657,1.01434 0.6016,0.67623 0.90241,1.61828 0.90242,2.82616 -10e-6,1.24053 -0.30315,2.20473 -0.90941,2.89262 -0.60628,0.68788 -1.3408,1.03183 -2.20357,1.03183 -0.4104,0 -0.78233,-0.0816 -1.11577,-0.24484 -0.33346,-0.16323 -0.6844,-0.44305 -1.05282,-0.83946 l 0,3.74257 -1.96572,0 z m 1.94473,3.58866 c 0,0.8348 0.16556,1.45156 0.49668,1.8503 0.33112,0.39874 0.73452,0.59811 1.21021,0.59811 0.45704,0 0.83712,-0.18304 1.14026,-0.54914 0.30313,-0.36609 0.4547,-0.96654 0.45471,-1.80133 -10e-6,-0.77882 -0.15624,-1.35711 -0.4687,-1.73487 -0.31247,-0.37775 -0.69955,-0.56663 -1.16124,-0.56663 -0.48036,0 -0.8791,0.18538 -1.19622,0.55614 -0.31713,0.37076 -0.4757,0.9199 -0.4757,1.64742 z"
       style=""
       id="path4275" />
    <path
       d="m 274.35086,143.10477 c 0,-0.6529 0.16089,-1.28483 0.48269,-1.89577 0.32179,-0.61093 0.77765,-1.07729 1.36761,-1.39909 0.58994,-0.32178 1.24868,-0.48267 1.97621,-0.48268 1.12393,1e-5 2.045,0.36493 2.7632,1.09479 0.71819,0.72986 1.07729,1.65209 1.0773,2.7667 -1e-5,1.12393 -0.3626,2.05549 -1.08779,2.79468 -0.7252,0.73918 -1.63811,1.10878 -2.73872,1.10878 -0.68089,0 -1.3303,-0.1539 -1.94823,-0.4617 -0.61793,-0.3078 -1.08779,-0.75901 -1.40958,-1.35362 -0.3218,-0.59461 -0.48269,-1.31864 -0.48269,-2.17209 z m 2.01469,0.10493 c 0,0.73686 0.17488,1.30116 0.52466,1.6929 0.34977,0.39175 0.78115,0.58762 1.29416,0.58762 0.51299,0 0.94321,-0.19587 1.29066,-0.58762 0.34743,-0.39174 0.52115,-0.9607 0.52116,-1.70689 -1e-5,-0.72752 -0.17373,-1.28716 -0.52116,-1.67891 -0.34745,-0.39174 -0.77767,-0.58761 -1.29066,-0.58761 -0.51301,0 -0.94439,0.19587 -1.29416,0.58761 -0.34978,0.39175 -0.52466,0.95605 -0.52466,1.6929 z"
       style=""
       id="path4277" />
    <path
       d="m 283.56387,146.92429 0,-10.25533 1.96572,0 0,10.25533 z"
       style=""
       id="path4279" />
    <path
       d="m 287.53728,146.92429 0,-7.42917 1.96572,0 0,7.42917 z m -0.13991,-8.33858 0.96537,-2.09164 2.20357,0 -1.92375,2.09164 z"
       style=""
       id="path4281" />
    <path
       d="m 294.91748,139.49512 0,1.56698 -1.34312,0 0,2.99405 c -1e-5,0.60628 0.0128,0.95955 0.0385,1.05981 0.0257,0.10027 0.0839,0.18305 0.17489,0.24834 0.0909,0.0653 0.2017,0.0979 0.33228,0.0979 0.18188,0 0.44537,-0.063 0.79049,-0.18888 l 0.16789,1.52501 c -0.45704,0.19587 -0.9747,0.29381 -1.55299,0.29381 -0.35444,0 -0.6739,-0.0595 -0.95838,-0.17839 -0.28448,-0.11892 -0.49318,-0.27282 -0.62609,-0.4617 -0.13292,-0.18887 -0.22502,-0.44421 -0.27632,-0.766 -0.042,-0.22852 -0.063,-0.69021 -0.063,-1.3851 l 0,-3.23889 -0.90241,0 0,-1.56698 0.90241,0 0,-1.47604 1.97272,-1.14725 0,2.62329 z"
       style=""
       id="path4283" />
    <path
       d="m 296.29559,138.48777 0,-1.81881 1.96572,0 0,1.81881 z m 0,8.43652 0,-7.42917 1.96572,0 0,7.42917 z"
       style=""
       id="path4285" />
    <path
       d="m 306.74679,141.69169 -1.93774,0.34977 c -0.0653,-0.38707 -0.21337,-0.67855 -0.44421,-0.87443 -0.23086,-0.19587 -0.5305,-0.2938 -0.89892,-0.29381 -0.48968,1e-5 -0.88026,0.16906 -1.17174,0.50717 -0.29148,0.33812 -0.43722,0.90359 -0.43721,1.6964 -10e-6,0.88143 0.14806,1.50402 0.44421,1.86778 0.29614,0.36377 0.69371,0.54565 1.19272,0.54565 0.37309,0 0.67856,-0.1061 0.91641,-0.31829 0.23784,-0.2122 0.40573,-0.57713 0.50367,-1.09479 l 1.93074,0.32878 c -0.20054,0.8861 -0.58529,1.55533 -1.15425,2.0077 -0.56897,0.45237 -1.33147,0.67856 -2.28751,0.67856 -1.08663,0 -1.9529,-0.34278 -2.59881,-1.02833 -0.64591,-0.68556 -0.96887,-1.63461 -0.96887,-2.84715 0,-1.22653 0.32412,-2.18141 0.97237,-2.86464 0.64824,-0.68321 1.525,-1.02482 2.63029,-1.02483 0.90474,1e-5 1.6241,0.19471 2.15809,0.58412 0.53398,0.38942 0.91757,0.98286 1.15076,1.78034 z"
       style=""
       id="path4287" />
    <path
       d="m 307.78911,143.10477 c 0,-0.6529 0.1609,-1.28483 0.48269,-1.89577 0.32179,-0.61093 0.77766,-1.07729 1.36761,-1.39909 0.58994,-0.32178 1.24868,-0.48267 1.97621,-0.48268 1.12393,1e-5 2.045,0.36493 2.7632,1.09479 0.7182,0.72986 1.0773,1.65209 1.0773,2.7667 0,1.12393 -0.3626,2.05549 -1.08779,2.79468 -0.7252,0.73918 -1.63811,1.10878 -2.73872,1.10878 -0.68089,0 -1.3303,-0.1539 -1.94823,-0.4617 -0.61793,-0.3078 -1.08779,-0.75901 -1.40958,-1.35362 -0.32179,-0.59461 -0.48269,-1.31864 -0.48269,-2.17209 z m 2.01469,0.10493 c 0,0.73686 0.17488,1.30116 0.52466,1.6929 0.34977,0.39175 0.78115,0.58762 1.29416,0.58762 0.51299,0 0.94321,-0.19587 1.29066,-0.58762 0.34743,-0.39174 0.52115,-0.9607 0.52116,-1.70689 -10e-6,-0.72752 -0.17373,-1.28716 -0.52116,-1.67891 -0.34745,-0.39174 -0.77767,-0.58761 -1.29066,-0.58761 -0.51301,0 -0.94439,0.19587 -1.29416,0.58761 -0.34978,0.39175 -0.52466,0.95605 -0.52466,1.6929 z"
       style=""
       id="path4289" />
  </g>
</svg>
