<svg xmlns="http://www.w3.org/2000/svg" width="483.00751" height="322.74261"><defs><clipPath clipPathUnits="userSpaceOnUse" id="a"><path d="M0 595.28h841.89V0H0v595.28z"/></clipPath></defs><path d="M63.057255 95.77387v-94.025l418.7225 151.29875v94.025L63.057255 95.77387z" fill="#fff"/><path d="M61.82913-.000005v96.63625l421.1775 152.18625v-96.63625L61.82913-.000005zm2.455 3.49875l416.2675 150.41125v91.41375L64.28413 94.912495V3.498745zM2.06838 169.761995l60.22-71.91625 418.65125 151.5325-60.22 71.91875-418.65125-151.535z" fill="#373535"/><path d="M61.898755 96.39887l-61.89875 73.92 421.10875 152.42375 61.89875-73.92125-421.10875-152.4225zm.78 2.89375l416.1925 150.64375-58.5425 69.9125-416.1925-150.645 58.5425-69.91125zM77.67513 86.114495v-63.28375l43.0175 15.65625v13.865l-27.46375-9.995v10.5775l23.465 8.54125v13.865l-23.465-8.54v11.11l27.46375 9.99625v13.86375l-43.0175-15.65625z" fill="#373535"/><g clip-path="url(#a)" transform="matrix(1.25 0 0 -1.25 -274.32562 538.61937)"><path d="M339.6201 340.459c-7.75 2.821-14.078 6.547-19.198 13.672l7.965 5.065c2.63-3.589 7.252-6.194 11.305-7.671 4.906-1.785 7.252-1.003 7.252 1.913 0 1.208-.284 2.306-.996 3.347-.64.873-1.705 1.76-3.341 2.569l-6.115 3.078c-4.48 2.271-7.893 5.006-10.168 8.181-2.347 3.272-3.484 7.098-3.484 11.436 0 9.244 6.967 13.463 18.487 9.269 7.253-2.638 12.729-6.338 17.065-12.254l-7.821-4.975c-3.2 4.364-7.395 5.679-9.599 6.48-4.337 1.578-6.116-.263-6.116-2.467 0-.641.213-1.642.996-2.709.64-.872 1.706-1.901 3.484-2.761l6.115-3.079c4.551-2.297 7.821-4.909 9.955-7.819 2.701-3.614 3.768-7.771 3.768-12.464 0-10.31-8.888-12.693-19.554-8.811M385.2695 323.8438c-5.902 2.148-10.381 5.771-14.078 10.813-5.334 7.275-5.12 14.308-5.12 21.916 0 7.608-.214 14.796 5.12 18.189 3.697 2.352 8.176 2.712 14.078.563 9.599-3.493 17.35-11.647 19.198-23.483l-12.657 4.606c-.781 3.128-2.346 6.257-6.47 7.759-2.276.828-3.982.525-4.906-.347-1.138-1.08-1.92-2.573-1.92-11.817s.782-11.305 1.92-13.213c.924-1.545 2.63-3.09 4.906-3.919 4.124-1.501 5.689.49 6.47 3.049l12.657-4.606c-1.848-10.49-9.599-13.003-19.198-9.51M433.9756 344.3008c-.924 1.545-2.702 3.188-4.978 4.016-2.274.828-4.052.48-4.977-.393-1.138-1.078-1.849-2.526-1.849-11.77s.711-11.138 1.849-13.046c.925-1.545 2.703-3.258 4.977-4.086 2.276-.828 4.054-.409 4.978.463 1.138 1.08 1.85 2.456 1.85 11.699 0 9.244-.712 11.21-1.85 13.117m9.172-35.834c-3.697-2.352-7.963-2.79-14.15-.539-6.185 2.252-10.452 5.796-14.149 10.839-5.333 7.274-5.119 14.307-5.119 21.915 0 7.609-.214 14.797 5.119 18.189 3.697 2.352 7.964 2.789 14.149.538 6.187-2.251 10.453-5.795 14.15-10.838 5.334-7.274 5.12-14.307 5.12-21.916 0-7.608.214-14.796-5.12-18.188M485.8828 287.6504l-16.212 31.357v-25.457l-12.443 4.53v50.628l10.879-3.96 16.212-31.357v25.456l12.443-4.529v-50.627l-10.879 3.959zM521.79 274.1543c-7.751 2.822-14.079 6.547-19.198 13.672l7.964 5.065c2.63-3.589 7.253-6.194 11.305-7.67 4.907-1.786 7.253-1.004 7.253 1.912 0 1.209-.285 2.307-.996 3.348-.64.873-1.706 1.759-3.341 2.568l-6.115 3.078c-4.48 2.271-7.893 5.006-10.168 8.181-2.347 3.272-3.484 7.098-3.484 11.436 0 9.244 6.967 13.463 18.487 9.27 7.252-2.639 12.728-6.339 17.064-12.255l-7.821-4.975c-3.199 4.364-7.395 5.679-9.599 6.48-4.337 1.579-6.115-.262-6.115-2.467 0-.64.213-1.642.996-2.709.64-.872 1.705-1.901 3.484-2.761l6.115-3.079c4.551-2.296 7.821-4.908 9.955-7.819 2.701-3.614 3.768-7.77 3.768-12.463 0-10.31-8.888-12.693-19.554-8.812" fill="#373535"/><path d="M239.877 300.1836l34.631 41.271 32.34-11.771-7.588-9.043-20.649 7.516-5.788-6.899 17.643-6.421-7.588-9.042-17.643 6.421-6.079-7.246 20.649-7.515-7.588-9.042-32.34 11.771zM307.7617 275.4756l2.178 26.296-17.412-20.751-11.694 4.256 34.631 41.27 10.223-3.72-2.179-26.297 17.413 20.752 11.694-4.256-34.631-41.272-10.223 3.722zM389.0781 287.874l-7.285 2.651-5.643-6.724 7.285-2.651c3.207-1.168 5.669.207 7.031 1.83s1.819 3.727-1.388 4.894m-12.679-16.043l-7.884 2.87-6.081-7.246 7.885-2.869c3.209-1.168 5.883.355 7.342 2.095 1.459 1.739 1.947 3.982-1.262 5.15m-12.579-16.76l-20.715 7.539 34.631 41.272 19.713-7.175c9.889-3.599 11.129-10.332 5.147-17.461-3.94-4.695-9.87-5.942-12.068-6.276 1.06-1.748 3.202-5.328-1.662-11.125-6.614-7.883-16.559-9.863-25.046-6.774M387.0723 246.6084l34.631 41.271 11.693-4.255-27.043-32.229 19.979-7.272-7.588-9.042-31.672 11.527zM464.6934 251.8008l-13.517-9.456 8.288-3.017 5.229 12.473zm-12.209-29.001l2.952 6.946-14.633 5.326-7.497-5.292-12.226 4.451 51.937 34.972 9.02-3.283-17.326-47.57-12.227 4.45zM496.7852 206.6768l2.176 26.296-17.412-20.751-11.694 4.256 34.631 41.27 10.223-3.72-2.177-26.296 17.413 20.751 11.694-4.256-34.631-41.272-10.223 3.722zM533.1748 192.9766c-5.547 2.02-8.394 5.175-9.339 9.453-1.362 6.171 3.701 11.895 8.905 18.098 5.205 6.202 9.869 12.07 18.527 14.595 6.004 1.75 11.575 1.84 17.122-.179 9.019-3.282 12.654-10.281 6.755-20.014l-11.893 4.329c1.211 2.586 1.493 5.207-2.384 6.618-2.138.779-4.374.609-6.071-.06-2.089-.828-4.039-2.01-10.362-9.545-6.323-7.536-6.805-9.252-6.758-10.859.042-1.301 1.014-2.639 3.152-3.416 3.877-1.413 7.097.14 9.777 2.191l11.892-4.328c-9.373-8.469-20.303-10.165-29.323-6.883" fill="#fff"/></g></svg>