<?xml version="1.0" encoding="UTF-8" standalone="no"?>
<!-- Created with Inkscape (http://www.inkscape.org/) -->

<svg
   xmlns:dc="http://purl.org/dc/elements/1.1/"
   xmlns:cc="http://creativecommons.org/ns#"
   xmlns:rdf="http://www.w3.org/1999/02/22-rdf-syntax-ns#"
   xmlns:svg="http://www.w3.org/2000/svg"
   xmlns="http://www.w3.org/2000/svg"
   xmlns:sodipodi="http://sodipodi.sourceforge.net/DTD/sodipodi-0.dtd"
   xmlns:inkscape="http://www.inkscape.org/namespaces/inkscape"
   id="svg2"
   version="1.1"
   inkscape:version="0.47 r22583"
   width="483.00751"
   height="322.74261"
   xml:space="preserve"
   sodipodi:docname="EEB_Logotipo_Cat.ai"><metadata
     id="metadata8"><rdf:RDF><cc:Work
         rdf:about=""><dc:format>image/svg+xml</dc:format><dc:type
           rdf:resource="http://purl.org/dc/dcmitype/StillImage" /><dc:title></dc:title></cc:Work></rdf:RDF></metadata><defs
     id="defs6"><inkscape:perspective
       sodipodi:type="inkscape:persp3d"
       inkscape:vp_x="0 : 0.5 : 1"
       inkscape:vp_y="0 : 1000 : 0"
       inkscape:vp_z="1 : 0.5 : 1"
       inkscape:persp3d-origin="0.5 : 0.33333333 : 1"
       id="perspective10" /><clipPath
       clipPathUnits="userSpaceOnUse"
       id="clipPath38"><path
         d="m 0,595.28 841.89,0 L 841.89,0 0,0 0,595.28 z"
         id="path40" /></clipPath></defs><sodipodi:namedview
     pagecolor="#ffffff"
     bordercolor="#666666"
     borderopacity="1"
     objecttolerance="10"
     gridtolerance="10"
     guidetolerance="10"
     inkscape:pageopacity="0"
     inkscape:pageshadow="2"
     inkscape:window-width="640"
     inkscape:window-height="480"
     id="namedview4"
     showgrid="false"
     inkscape:zoom="0.35882275"
     inkscape:cx="251.85565"
     inkscape:cy="150.59948"
     inkscape:window-x="1431"
     inkscape:window-y="317"
     inkscape:window-maximized="0"
     inkscape:current-layer="g12" /><g
     id="g12"
     inkscape:groupmode="layer"
     inkscape:label="EEB_Logotipo_Cat"
     transform="matrix(1.25,0,0,-1.25,-274.32562,538.61937)"><g
       id="g14"
       transform="translate(269.9063,354.2764)"><path
         d="m 0,0 0,75.22 334.978,-121.039 0,-75.22 L 0,0 z"
         style="fill:#ffffff;fill-opacity:1;fill-rule:nonzero;stroke:none"
         id="path16" /></g><g
       id="g18"
       transform="translate(268.9238,430.8955)"><path
         d="m 0,0 0,-77.309 336.942,-121.749 0,77.309 L 0,0 z m 1.964,-2.799 333.014,-120.329 0,-73.131 -333.014,120.329 0,73.131 z"
         style="fill:#373535;fill-opacity:1;fill-rule:nonzero;stroke:none"
         id="path20" /></g><g
       id="g22"
       transform="translate(221.1152,295.0859)"><path
         d="M 0,0 48.176,57.533 383.097,-63.693 334.921,-121.228 0,0 z"
         style="fill:#373535;fill-opacity:1;fill-rule:nonzero;stroke:none"
         id="path24" /></g><g
       id="g26"
       transform="translate(268.9795,353.7764)"><path
         d="m 0,0 -49.519,-59.136 336.887,-121.939 49.519,59.137 L 0,0 z M 0.624,-2.315 333.578,-122.83 286.744,-178.76 -46.21,-58.244 0.624,-2.315 z"
         style="fill:#373535;fill-opacity:1;fill-rule:nonzero;stroke:none"
         id="path28" /></g><g
       id="g30"
       transform="translate(281.6006,362.0039)"><path
         d="m 0,0 0,50.627 34.414,-12.525 0,-11.092 -21.971,7.996 0,-8.462 18.772,-6.833 0,-11.092 -18.772,6.832 0,-8.888 21.971,-7.997 0,-11.091 L 0,0 z"
         style="fill:#373535;fill-opacity:1;fill-rule:nonzero;stroke:none"
         id="path32" /></g><g
       id="g34"><g
         id="g36"
         clip-path="url(#clipPath38)"><g
           id="g42"
           transform="translate(339.6201,340.459)"><path
             d="m 0,0 c -7.75,2.821 -14.078,6.547 -19.198,13.672 l 7.965,5.065 c 2.63,-3.589 7.252,-6.194 11.305,-7.671 4.906,-1.785 7.252,-1.003 7.252,1.913 0,1.208 -0.284,2.306 -0.996,3.347 -0.64,0.873 -1.705,1.76 -3.341,2.569 l -6.115,3.078 c -4.48,2.271 -7.893,5.006 -10.168,8.181 -2.347,3.272 -3.484,7.098 -3.484,11.436 0,9.244 6.967,13.463 18.487,9.269 C 8.96,48.221 14.436,44.521 18.772,38.605 L 10.951,33.63 c -3.2,4.364 -7.395,5.679 -9.599,6.48 -4.337,1.578 -6.116,-0.263 -6.116,-2.467 0,-0.641 0.213,-1.642 0.996,-2.709 0.64,-0.872 1.706,-1.901 3.484,-2.761 l 6.115,-3.079 c 4.551,-2.297 7.821,-4.909 9.955,-7.819 2.701,-3.614 3.768,-7.771 3.768,-12.464 C 19.554,-1.499 10.666,-3.882 0,0"
             style="fill:#373535;fill-opacity:1;fill-rule:nonzero;stroke:none"
             id="path44" /></g><g
           id="g46"
           transform="translate(385.2695,323.8438)"><path
             d="m 0,0 c -5.902,2.148 -10.381,5.771 -14.078,10.813 -5.334,7.275 -5.12,14.308 -5.12,21.916 0,7.608 -0.214,14.796 5.12,18.189 C -10.381,53.27 -5.902,53.63 0,51.481 9.599,47.988 17.35,39.834 19.198,27.998 L 6.541,32.604 c -0.781,3.128 -2.346,6.257 -6.47,7.759 -2.276,0.828 -3.982,0.525 -4.906,-0.347 -1.138,-1.08 -1.92,-2.573 -1.92,-11.817 0,-9.244 0.782,-11.305 1.92,-13.213 0.924,-1.545 2.63,-3.09 4.906,-3.919 4.124,-1.501 5.689,0.49 6.47,3.049 L 19.198,9.51 C 17.35,-0.98 9.599,-3.493 0,0"
             style="fill:#373535;fill-opacity:1;fill-rule:nonzero;stroke:none"
             id="path48" /></g><g
           id="g50"
           transform="translate(433.9756,344.3008)"><path
             d="m 0,0 c -0.924,1.545 -2.702,3.188 -4.978,4.016 -2.274,0.828 -4.052,0.48 -4.977,-0.393 -1.138,-1.078 -1.849,-2.526 -1.849,-11.77 0,-9.244 0.711,-11.138 1.849,-13.046 0.925,-1.545 2.703,-3.258 4.977,-4.086 2.276,-0.828 4.054,-0.409 4.978,0.463 1.138,1.08 1.85,2.456 1.85,11.699 C 1.85,-3.873 1.138,-1.907 0,0 m 9.172,-35.834 c -3.697,-2.352 -7.963,-2.79 -14.15,-0.539 -6.185,2.252 -10.452,5.796 -14.149,10.839 -5.333,7.274 -5.119,14.307 -5.119,21.915 0,7.609 -0.214,14.797 5.119,18.189 3.697,2.352 7.964,2.789 14.149,0.538 C 1.209,12.857 5.475,9.313 9.172,4.27 c 5.334,-7.274 5.12,-14.307 5.12,-21.916 0,-7.608 0.214,-14.796 -5.12,-18.188"
             style="fill:#373535;fill-opacity:1;fill-rule:nonzero;stroke:none"
             id="path52" /></g><g
           id="g54"
           transform="translate(485.8828,287.6504)"><path
             d="m 0,0 -16.212,31.357 0,-25.457 -12.443,4.53 0,50.628 10.879,-3.96 16.212,-31.357 0,25.456 12.443,-4.529 0,-50.627 L 0,0 z"
             style="fill:#373535;fill-opacity:1;fill-rule:nonzero;stroke:none"
             id="path56" /></g><g
           id="g58"
           transform="translate(521.79,274.1543)"><path
             d="m 0,0 c -7.751,2.822 -14.079,6.547 -19.198,13.672 l 7.964,5.065 c 2.63,-3.589 7.253,-6.194 11.305,-7.67 4.907,-1.786 7.253,-1.004 7.253,1.912 0,1.209 -0.285,2.307 -0.996,3.348 -0.64,0.873 -1.706,1.759 -3.341,2.568 l -6.115,3.078 c -4.48,2.271 -7.893,5.006 -10.168,8.181 -2.347,3.272 -3.484,7.098 -3.484,11.436 0,9.244 6.967,13.463 18.487,9.27 7.252,-2.639 12.728,-6.339 17.064,-12.255 L 10.95,33.63 c -3.199,4.364 -7.395,5.679 -9.599,6.48 -4.337,1.579 -6.115,-0.262 -6.115,-2.467 0,-0.64 0.213,-1.642 0.996,-2.709 0.64,-0.872 1.705,-1.901 3.484,-2.761 l 6.115,-3.079 c 4.551,-2.296 7.821,-4.908 9.955,-7.819 2.701,-3.614 3.768,-7.77 3.768,-12.463 C 19.554,-1.498 10.666,-3.881 0,0"
             style="fill:#373535;fill-opacity:1;fill-rule:nonzero;stroke:none"
             id="path60" /></g><g
           id="g62"
           transform="translate(239.877,300.1836)"><path
             d="M 0,0 34.631,41.271 66.971,29.5 59.383,20.457 38.734,27.973 32.946,21.074 50.589,14.653 43.001,5.611 25.358,12.032 19.279,4.786 39.928,-2.729 32.34,-11.771 0,0 z"
             style="fill:#ffffff;fill-opacity:1;fill-rule:nonzero;stroke:none"
             id="path64" /></g><g
           id="g66"
           transform="translate(307.7617,275.4756)"><path
             d="M 0,0 2.178,26.296 -15.234,5.545 -26.928,9.801 7.703,51.071 17.926,47.351 15.747,21.054 33.16,41.806 44.854,37.55 10.223,-3.722 0,0 z"
             style="fill:#ffffff;fill-opacity:1;fill-rule:nonzero;stroke:none"
             id="path68" /></g><g
           id="g70"
           transform="translate(389.0781,287.874)"><path
             d="m 0,0 -7.285,2.651 -5.643,-6.724 7.285,-2.651 c 3.207,-1.168 5.669,0.207 7.031,1.83 C 2.75,-3.271 3.207,-1.167 0,0 m -12.679,-16.043 -7.884,2.87 -6.081,-7.246 7.885,-2.869 c 3.209,-1.168 5.883,0.355 7.342,2.095 1.459,1.739 1.947,3.982 -1.262,5.15 m -12.579,-16.76 -20.715,7.539 34.631,41.272 L 8.371,8.833 C 18.26,5.234 19.5,-1.499 13.518,-8.628 9.578,-13.323 3.648,-14.57 1.45,-14.904 c 1.06,-1.748 3.202,-5.328 -1.662,-11.125 -6.614,-7.883 -16.559,-9.863 -25.046,-6.774"
             style="fill:#ffffff;fill-opacity:1;fill-rule:nonzero;stroke:none"
             id="path72" /></g><g
           id="g74"
           transform="translate(387.0723,246.6084)"><path
             d="M 0,0 34.631,41.271 46.324,37.016 19.281,4.787 39.26,-2.485 31.672,-11.527 0,0 z"
             style="fill:#ffffff;fill-opacity:1;fill-rule:nonzero;stroke:none"
             id="path76" /></g><g
           id="g78"
           transform="translate(464.6934,251.8008)"><path
             d="M 0,0 -13.517,-9.456 -5.229,-12.473 0,0 z m -12.209,-29.001 2.952,6.946 -14.633,5.326 -7.497,-5.292 -12.226,4.451 51.937,34.972 9.02,-3.283 -17.326,-47.57 -12.227,4.45 z"
             style="fill:#ffffff;fill-opacity:1;fill-rule:nonzero;stroke:none"
             id="path80" /></g><g
           id="g82"
           transform="translate(496.7852,206.6768)"><path
             d="M 0,0 2.176,26.296 -15.236,5.545 -26.93,9.801 7.701,51.071 17.924,47.351 15.747,21.055 33.16,41.806 44.854,37.55 10.223,-3.722 0,0 z"
             style="fill:#ffffff;fill-opacity:1;fill-rule:nonzero;stroke:none"
             id="path84" /></g><g
           id="g86"
           transform="translate(533.1748,192.9766)"><path
             d="m 0,0 c -5.547,2.02 -8.394,5.175 -9.339,9.453 -1.362,6.171 3.701,11.895 8.905,18.098 5.205,6.202 9.869,12.07 18.527,14.595 6.004,1.75 11.575,1.84 17.122,-0.179 9.019,-3.282 12.654,-10.281 6.755,-20.014 l -11.893,4.329 c 1.211,2.586 1.493,5.207 -2.384,6.618 -2.138,0.779 -4.374,0.609 -6.071,-0.06 C 19.533,32.012 17.583,30.83 11.26,23.295 4.937,15.759 4.455,14.043 4.502,12.436 4.544,11.135 5.516,9.797 7.654,9.02 c 3.877,-1.413 7.097,0.14 9.777,2.191 L 29.323,6.883 C 19.95,-1.586 9.02,-3.282 0,0"
             style="fill:#ffffff;fill-opacity:1;fill-rule:nonzero;stroke:none"
             id="path88" /></g></g></g></g></svg>