<?xml version="1.0" encoding="UTF-8" standalone="no"?>
<!-- Created with Inkscape (http://www.inkscape.org/) -->

<svg
   xmlns:dc="http://purl.org/dc/elements/1.1/"
   xmlns:cc="http://creativecommons.org/ns#"
   xmlns:rdf="http://www.w3.org/1999/02/22-rdf-syntax-ns#"
   xmlns:svg="http://www.w3.org/2000/svg"
   xmlns="http://www.w3.org/2000/svg"
   xmlns:sodipodi="http://sodipodi.sourceforge.net/DTD/sodipodi-0.dtd"
   xmlns:inkscape="http://www.inkscape.org/namespaces/inkscape"
   width="100"
   height="48.087334"
   id="svg24713"
   version="1.1"
   inkscape:version="0.48.4 r9939"
   sodipodi:docname="logo vox.svg">
  <defs
     id="defs24715" />
  <sodipodi:namedview
     id="base"
     pagecolor="#ffffff"
     bordercolor="#666666"
     borderopacity="1.0"
     inkscape:pageopacity="0.0"
     inkscape:pageshadow="2"
     inkscape:zoom="0.35"
     inkscape:cx="-188.57143"
     inkscape:cy="-81.720572"
     inkscape:document-units="px"
     inkscape:current-layer="layer1"
     showgrid="false"
     inkscape:window-width="1920"
     inkscape:window-height="1018"
     inkscape:window-x="-8"
     inkscape:window-y="-8"
     inkscape:window-maximized="1"
     fit-margin-bottom="-0.1"
     fit-margin-top="0"
     fit-margin-left="0"
     fit-margin-right="0" />
  <metadata
     id="metadata24718">
    <rdf:RDF>
      <cc:Work
         rdf:about="">
        <dc:format>image/svg+xml</dc:format>
        <dc:type
           rdf:resource="http://purl.org/dc/dcmitype/StillImage" />
        <dc:title />
      </cc:Work>
    </rdf:RDF>
  </metadata>
  <g
     inkscape:label="Capa 1"
     inkscape:groupmode="layer"
     id="layer1"
     transform="translate(-64.285715,-402.55427)">
    <g
       transform="matrix(0.44643158,0,0,-0.44643158,-18.740505,895.18058)"
       id="g24688">
      <g
         id="g3263"
         transform="translate(203.1543,1071.3115)">
        <path
           d="m 0,0 c 9.602,-33.392 9.355,-32.451 9.984,-34.327 0.414,-1.254 2.291,-2.954 3.545,-2.954 2.086,0 3.653,1.443 5.01,6.037 l 19.404,56.107 c 2.634,7.305 3.758,7.301 10.017,7.301 8.14,0 7.513,-4.175 6.257,-7.93 l -29.416,-81.12 c -1.463,-4.17 -4.178,-6.635 -8.141,-6.635 l -5.842,0 c -3.338,0 -6.783,1.418 -8.765,7.26 L -16.902,0.75 c -1.147,3.341 1.459,5.635 4.799,5.635 l 4.175,0 C -3.965,6.385 -1.252,4.174 0,0"
           style="fill:#5ac035;fill-opacity:1;fill-rule:nonzero;stroke:none"
           id="path3265"
           inkscape:connector-curvature="0" />
      </g>
      <g
         id="g3267"
         transform="translate(359.8418,1014.0083)">
        <path
           d="m 0,0 c -3.133,-4.799 -5.426,-6.217 -9.182,-6.217 l -6.05,0 c -2.924,0 -5.011,2.255 -3.967,4.342 0.625,1.25 0.625,1.125 1.462,2.378 L 0,25.587 c 1.67,2.295 2.715,4.821 2.715,6.701 0,2.086 -1.152,4.392 -1.881,5.437 l -13.227,18.946 c -2.502,3.546 -2.086,7.017 1.878,7.017 l 6.888,0 c 3.342,0 6.05,-1.796 7.93,-4.929 l 4.461,-7.813 c 1.67,-2.714 3.757,-4.415 6.052,-4.415 1.877,0 2.864,1.027 5.219,3.74 L 31.686,65.42 c 2.248,2.991 4.8,5.786 9.39,5.786 l 5.008,0 c 4.803,0 4.594,-3.703 3.133,-5.794 L 29.423,39.902 c -2.191,-3.027 -3.128,-5.258 -3.128,-7.345 0,-1.672 0.415,-3.777 3.128,-7.532 L 43.824,4.772 c 4.901,-6.889 4.381,-6.642 4.381,-7.897 0,-1.877 -1.457,-3.092 -4.381,-3.092 l -6.261,0 c -3.133,0 -6.159,1.734 -8.14,4.967 l -9.18,14.691 c -2.192,3.444 -3.758,4.425 -5.638,4.425 -2.501,0 -4.378,-1.733 -6.049,-4.446 L 0,0 z"
           style="fill:#5ac035;fill-opacity:1;fill-rule:nonzero;stroke:none"
           id="path3269"
           inkscape:connector-curvature="0" />
      </g>
      <g
         id="g3271"
         transform="translate(296.3711,995.5366)">
        <path
           d="m 0,0 c -30.076,0 -46.479,22.696 -46.479,47.849 0,33.629 24.057,48.942 45.931,48.942 30.621,0 47.026,-23.24 47.026,-48.394 C 46.48,20.233 27.89,0 0,0 m -1.115,14.861 c 17.81,0 28.943,13.083 28.943,33.672 -10e-4,18.926 -10.854,33.398 -27.83,33.398 -15.863,0 -27.826,-11.411 -27.826,-33.12 0,-20.038 11.129,-33.95 26.713,-33.95"
           style="fill:#5ac035;fill-opacity:1;fill-rule:nonzero;stroke:none"
           id="path3273"
           inkscape:connector-curvature="0" />
      </g>
    </g>
  </g>
</svg>
