<?xml version="1.0" encoding="UTF-8" standalone="no"?>
<svg
   xmlns:dc="http://purl.org/dc/elements/1.1/"
   xmlns:cc="http://creativecommons.org/ns#"
   xmlns:rdf="http://www.w3.org/1999/02/22-rdf-syntax-ns#"
   xmlns:svg="http://www.w3.org/2000/svg"
   xmlns="http://www.w3.org/2000/svg"
   xmlns:sodipodi="http://sodipodi.sourceforge.net/DTD/sodipodi-0.dtd"
   xmlns:inkscape="http://www.inkscape.org/namespaces/inkscape"
   width="1713.9098"
   height="1983.767"
   version="1.1"
   viewBox="0 0 1285.4323 1487.8252"
   id="svg10"
   sodipodi:docname="Ciudadanos_icono_2017.svg"
   inkscape:version="0.92.3 (2405546, 2018-03-11)">
  <metadata
     id="metadata16">
    <rdf:RDF>
      <cc:Work
         rdf:about="">
        <dc:format>image/svg+xml</dc:format>
        <dc:type
           rdf:resource="http://purl.org/dc/dcmitype/StillImage" />
      </cc:Work>
    </rdf:RDF>
  </metadata>
  <defs
     id="defs14" />
  <sodipodi:namedview
     pagecolor="#ffffff"
     bordercolor="#666666"
     borderopacity="1"
     objecttolerance="10"
     gridtolerance="10"
     guidetolerance="10"
     inkscape:pageopacity="0"
     inkscape:pageshadow="2"
     inkscape:window-width="1366"
     inkscape:window-height="705"
     id="namedview12"
     showgrid="false"
     inkscape:zoom="0.1081745"
     inkscape:cx="160.62209"
     inkscape:cy="99.434435"
     inkscape:window-x="-8"
     inkscape:window-y="-8"
     inkscape:window-maximized="1"
     inkscape:current-layer="svg10"
     fit-margin-top="0"
     fit-margin-left="0"
     fit-margin-right="0"
     fit-margin-bottom="0" />
  <g
     id="g8"
     transform="matrix(0.6436755,0,0,0.6436755,-1.0460466,-1.2695457)"
     style="fill:#fa4f00">
    <path
       d="m 557.32,5.543 c 67.84,-7.1289 136.55,-3.3047 203.55,8.9883 82.32,14.559 161.77,47.035 229.34,96.473 85.41,61.891 149.64,151.8 182.38,251.94 3.8828,13.766 9.7578,27.586 10.793,41.762 -79.617,25.621 -159.75,49.82 -239.56,74.977 -4.5898,1.4766 -9.2344,2.7031 -13.934,3.7422 -16.531,-68.395 -58.223,-131.41 -117.38,-170.16 -64.48,-41.57 -143.8,-56.484 -219.59,-49.602 -79.207,6.5 -156.04,41.41 -212.18,97.785 -51.777,51.676 -83.277,121.41 -94.016,193.32 -12.488,82.758 -4.1016,170.82 35.766,245.44 36.391,70.469 100.32,125.43 174.34,153.34 81.883,31.355 174.95,32.094 257.65,3.25 62.598,-21.715 116.8,-65.691 151.39,-122.15 15.273,-24.992 27.867,-51.785 35.766,-80.027 31.746,7.3477 62.895,17.453 94.426,25.812 54.48,15.566 109.21,30.398 163.44,46.895 -27.895,111.52 -91.887,213.79 -180.38,287.26 -84.645,70.797 -191.72,111.74 -300.82,124.17 -86.227,9.9141 -174.54,6.5273 -258.88,-14.695 -110.98,-27.559 -215.22,-85.219 -293.85,-168.71 -73.961,-76.477 -123.96,-174.67 -147.35,-278.13 -36.473,-164.48 -13.605,-344.78 76.312,-488.8 49.699,-80.957 119.95,-148.83 201.39,-197.59 79.316,-47.469 169.45,-76.34 261.39,-85.273 z"
       id="path2"
       inkscape:connector-curvature="0" />
    <path
       d="m 1513.7,381.32 c 65.055,-24.309 136.37,-28.051 204.75,-18.629 49.617,6.3633 98.473,21.633 141.23,47.938 69.371,41.57 119.62,116.41 126.23,197.5 -71.285,12.645 -142.57,25.371 -213.74,38.457 -5.4648,-25.84 -14.156,-52.359 -33.637,-71.207 -28.77,-27.777 -72.074,-35.398 -110.46,-28.625 -23.852,3.6055 -46.637,17.207 -59.234,38.047 -8.8242,14.367 -10.684,32.613 -5.6016,48.617 8.7461,23.574 32.953,37.75 56.75,42.066 81.367,18.324 167.57,25.234 241.72,66.617 46.391,25.074 86.691,62.82 110.98,109.96 18.281,35.289 25.52,75.359 25.957,114.83 -2.1562,50.34 -16.445,100.65 -44.48,142.79 -26.91,40.836 -65.355,73.613 -109.1,95.242 -48.523,24.258 -102.65,36.273 -156.67,38.352 -62.211,2.9219 -125.55,-2.9258 -184.51,-23.656 -47.676,-16.824 -92.184,-43.809 -126.69,-80.984 -39.973,-43.047 -68.254,-98.766 -72.461,-157.87 73.305,-12.238 146.37,-25.84 219.59,-38.594 2.6797,32.586 17.188,65.141 43.359,85.492 30.246,23.051 70.137,30.016 107.32,25.836 22.133,-2.1836 44.562,-10.133 60.383,-26.246 16.039,-16.09 23.906,-41.406 15.109,-63.039 -5.3828,-16.473 -20.191,-27.07 -34.945,-34.637 -24.672,-11.906 -52.078,-15.84 -78.496,-22.094 -59.891,-13.766 -121.7,-24.445 -176.61,-53.453 -42.023,-21.141 -79.289,-52.852 -104.15,-93.031 -26.395,-42.828 -35.738,-94.586 -32.352,-144.32 3.6055,-53.289 25.383,-104.75 59.617,-145.55 34.289,-40.914 80.109,-71.559 130.14,-89.805 z"
       id="path4"
       inkscape:connector-curvature="0" />
    <path
       d="m 5.5742,1475.2 c 364.67,0.1914 729.34,-0.082 1094,0.1367 -22.867,19.527 -47.594,36.762 -71.176,55.418 -176.88,135.45 -353.66,271 -530.57,406.37 -163.63,125.56 -327.87,250.33 -491.17,376.3 H 5.6465 c -0.10938,-279.42 -0.24609,-558.8 -0.10938,-838.22 z"
       id="path6"
       inkscape:connector-curvature="0" />
  </g>
</svg>
